<?xml version="1.0" encoding="utf-8"?>
<!-- Generator: Adobe Illustrator 17.1.0, SVG Export Plug-In . SVG Version: 6.00 Build 0)  -->
<!DOCTYPE svg PUBLIC "-//W3C//DTD SVG 1.1//EN" "http://www.w3.org/Graphics/SVG/1.1/DTD/svg11.dtd">
<svg version="1.1" id="Layer_6" xmlns="http://www.w3.org/2000/svg" xmlns:xlink="http://www.w3.org/1999/xlink" x="0px" y="0px"
	 viewBox="0 0 792 612" enable-background="new 0 0 792 612" xml:space="preserve">
<g id="_x39_9">
	
		<polyline id="headInflat99" fill="none" stroke="#03EDED" stroke-width="3" stroke-linecap="round" stroke-linejoin="round" stroke-miterlimit="10" points="
		4.8,86 30.1,97.2 53.3,101.9 80,94.6 104.7,80.1 126.7,85.3 152.7,83.2 177.4,87.9 202,98 275.2,88.6 324,87.9 348.7,79.3 	373.1,50 398.6,64.7 419.8,70 445.8,61.4 	"/>
</g>
<rect x="0.1" opacity="1.000000e-02" fill="#347670" enable-background="new    " width="470.8" height="170.9"/>
<g id="_x39_9_1_">
	<polyline id="coreInflat99" fill="none" stroke="#C63263" stroke-width="3" stroke-miterlimit="10" points="5.3,52.8 31.3,48.7 53.3,57.3 82.6,57.3 103.4,53.3 151.4,55.2 178.7,41.4 227.2,48.7 250,49.2 276.6,41.9 299.2,47.9 324,63.2 350,63.2 373.9,56.7 398.5,64.7 421.9,66.6 446.6,66.6 "/>
</g>
<g id="_x39_9_2_">
	<polyline id="unemployment99" fill="none" stroke="#03EDED" stroke-width="3" stroke-miterlimit="10" points="5.3,41.4 31.1,40.6 55,14.7 80,121.9 128.8,67 225.9,67 274.7,121.3 299.9,121.3 324,93.9 348.7,148.6 371.8,120 397.2,148.6 420.6,120.6 446.2,120.6 "/>
</g>
</svg>
