<?xml version="1.0" encoding="utf-8"?>
<!-- Generator: Adobe Illustrator 17.1.0, SVG Export Plug-In . SVG Version: 6.00 Build 0)  -->
<!DOCTYPE svg PUBLIC "-//W3C//DTD SVG 1.1//EN" "http://www.w3.org/Graphics/SVG/1.1/DTD/svg11.dtd">
<svg version="1.1" id="Layer_6" xmlns="http://www.w3.org/2000/svg" xmlns:xlink="http://www.w3.org/1999/xlink" x="0px" y="0px"
	 viewBox="0 0 792 612" enable-background="new 0 0 792 612" xml:space="preserve">
<polyline id="unemployment10" fill="none" stroke="#03EDED" stroke-width="3" stroke-miterlimit="10" points="2,107.7 16.3,111.3 
	30.3,106.7 44.7,108.7 57.3,103.3 71.3,102 98,93.3 113.3,92 140,83.3 153.3,76.7 170.7,71.3 182.3,64.7 198.3,58 207,57.3 
	222.7,48.7 234.7,47 249.3,49.3 264.7,44.3 279.3,43.7 290,39.3 302,41 320.7,41 330.7,45.3 358.7,44.7 374.3,42 399,48 417.3,47.7 
	443.3,46.7 "/>
<polyline id="unemployment03" fill="none" stroke="#03EDED" stroke-width="3" stroke-miterlimit="10" points="3.3,119 20.5,105.3 
	38.4,106.3 55.8,79.5 75.5,92.6 108.1,92.6 126.6,105.5 162.1,105.5 180.8,77.6 197.1,65.4 214.2,92.2 232.5,79.5 250.5,91.4 
	268,65.4 285,52.1 303.1,24 337.9,51.4 355.5,51.7 391.3,78.9 407.9,105 425.9,119 443.5,119 "/>
</svg>
