<?xml version="1.0" encoding="utf-8"?>
<!-- Generator: Adobe Illustrator 17.1.0, SVG Export Plug-In . SVG Version: 6.00 Build 0)  -->
<!DOCTYPE svg PUBLIC "-//W3C//DTD SVG 1.1//EN" "http://www.w3.org/Graphics/SVG/1.1/DTD/svg11.dtd">
<svg version="1.1" id="Layer_1" xmlns="http://www.w3.org/2000/svg" xmlns:xlink="http://www.w3.org/1999/xlink" x="0px" y="0px"
	 viewBox="0 0 792 612" enable-background="new 0 0 792 612" xml:space="preserve">
<g>
	<path fill="#FFFFFF" d="M660.2,304.5c0,1.6,0,3.1,0,4.7c0.3,9.4-0.8,18.7-2,28c-1.2,9.1-2.8,18.3-4.8,27.3
		c-2.4,10.8-5.8,21.4-9.7,31.9c-4.5,12.1-9.7,23.9-16,35.1c-5.8,10.4-12.1,20.5-19.2,30.1c-6.9,9.3-14.3,18.2-22.5,26.5
		c-7.7,7.8-15.6,15.6-24.3,22.3c-6.1,4.7-12.3,9.4-18.7,13.7c-9.1,6.2-18.5,12-28.6,16.8c-5.5,2.6-11,5.5-16.6,7.8
		c-6.9,2.8-14,5.4-21.1,7.8c-5.8,2-11.7,3.6-17.6,5.2c-4.6,1.2-9.2,2.2-13.8,3c-6.1,1.1-12.2,2.1-18.3,2.8
		c-14.6,1.7-29.3,2.7-43.9,1.7c-10.3-0.7-20.6-2-30.9-3.3c-5.6-0.7-11.1-1.8-16.6-3.1c-5.2-1.2-10.4-2.7-15.5-4.2
		c-6.1-1.9-12.2-3.8-18.2-6c-4.3-1.6-8.6-3.4-12.8-5.3c-6.4-3-12.9-5.8-19.1-9.2c-7.1-3.9-14.1-8.1-20.8-12.6
		c-7.7-5.1-15.1-10.7-22.4-16.3c-4.3-3.3-8.4-6.9-12.2-10.7c-7.1-7.1-14.3-14.2-20.9-21.8c-6.2-7.1-12-14.6-17.3-22.4
		c-5.5-8-10.6-16.4-15.3-25c-3.9-7-7.3-14.3-10.5-21.8c-3-7.2-5.6-14.5-8-21.9c-2.6-8-5-16.1-6.8-24.3c-1.9-8.4-3.1-17-4.2-25.6
		c-1.8-13.8-2.4-27.8-1.6-41.7c0.5-8.8,1.2-17.7,2.4-26.5c1.1-8.2,2.9-16.3,4.6-24.3c2.1-9.8,5.2-19.3,8.6-28.6
		c4-11.2,8.7-22.1,14.4-32.4c4.4-7.9,8.8-15.7,13.8-23.2c9-13.7,19.2-26.4,30.7-38c8.9-9,18.1-17.8,28.3-25.3
		c8.3-6.1,16.8-12,25.4-17.5c5.8-3.7,12-6.7,18.1-9.8c5.6-2.8,11.2-5.5,17-7.8c8.9-3.5,18-6.8,27.1-9.7c5.3-1.7,10.8-2.9,16.2-4
		c7.4-1.6,14.8-3,22.3-4.3c3.8-0.6,7.7-1,11.5-1.2c7.7-0.5,15.3-1,23-1.1c12.3-0.2,24.6,0.6,36.8,2.2c7,0.9,13.9,2.2,20.8,3.7
		c7.2,1.6,14.4,3.5,21.5,5.5c3.7,1,7.2,2.4,10.8,3.8c4.7,1.7,9.4,3.4,14,5.4c6.4,2.8,12.8,5.8,19,9c5.2,2.6,10.5,5.3,15.4,8.4
		c8.2,5.3,16.1,10.8,24,16.5c9.5,6.7,17.9,14.7,26.2,22.9c8.2,8.1,16.1,16.4,22.8,25.8c5.7,7.9,11.5,15.8,16.7,24
		c5.8,9.1,10.8,18.7,15.1,28.6c2.3,5.2,4.6,10.5,6.6,15.9c2.7,7.5,5.3,15,7.4,22.6c2.1,7.5,3.5,15.2,5.2,22.7
		c2.4,10.6,3.2,21.4,4.1,32.1c0.5,5.1,0.1,10.3,0.1,15.5C660.1,304.5,660.1,304.5,660.2,304.5z M141.7,303.3
		c0.4,12.8,0.4,24.4,2.4,35.9c1.3,7.5,2.4,15.1,4.2,22.5c1.7,7.4,4,14.6,6.3,21.8c1.8,5.7,3.7,11.4,6.1,16.8
		c4,8.9,8.1,17.6,12.7,26.2c5.9,11,12.7,21.6,20.5,31.3c5.5,6.9,11.1,13.8,17.3,20.2c6.7,7,13.9,13.6,21.2,19.9
		c5.4,4.7,11.3,8.9,17.1,13.1c7.9,5.8,16.3,11.1,24.9,15.7c5.8,3.1,11.8,5.9,17.8,8.6c5.4,2.5,10.9,4.9,16.5,6.9
		c7.7,2.7,15.6,5,23.5,7.2c8.2,2.4,16.6,3.9,25.1,5c7.7,1,15.4,1.7,23.1,2.3c13.4,1,26.9,0.6,40.3-0.8c9.4-1,18.8-2.4,28-4.3
		c8.6-1.8,17.1-4.3,25.4-7.1c7.6-2.5,15-5.5,22.4-8.6c11-4.7,21.6-10.1,31.6-16.6c6.9-4.5,13.6-9.1,20.3-13.9
		c9.9-7.1,18.7-15.4,27.3-24.1c9.6-9.7,18.3-20,26.1-31.2c6.1-8.7,11.9-17.7,16.7-27.1c4.3-8.3,8-16.9,11.7-25.5
		c2.3-5.3,4.1-10.7,5.9-16.2c1.6-5,3-10.2,4.4-15.3c1-3.9,2.1-7.8,2.8-11.7c1-5.1,1.8-10.2,2.4-15.3c0.9-7.6,1.9-15.3,2.1-22.9
		c0.5-16.5,0.3-33-2.5-49.4c-0.7-4.2-1.3-8.5-2.2-12.7c-1.2-5.6-2.6-11.1-4.2-16.5c-1.8-6.4-3.8-12.7-6-19c-1.8-5-4-9.9-6-14.9
		c-4.3-10.4-9.6-20.4-15.5-30c-4.4-7.1-9.2-14-14.2-20.7c-6.1-8.2-12.8-16-20.1-23.3c-9-9-18-17.9-28.3-25.3
		c-7.1-5.1-14.2-10.2-21.6-14.9c-5.6-3.6-11.6-6.7-17.6-9.7c-5-2.6-10.2-5-15.4-7.2c-5.9-2.5-11.8-4.8-17.9-6.9
		c-6.2-2.1-12.5-4.1-18.9-5.7c-6.9-1.7-14-3.1-21-4.2c-8.5-1.3-17.1-2.5-25.7-3.1c-16.5-1.1-33-0.5-49.4,1.7
		c-4.2,0.6-8.4,1.2-12.6,2.1c-6.3,1.3-12.5,2.7-18.7,4.3c-6.5,1.8-13,3.6-19.4,5.9c-7.3,2.7-14.6,5.7-21.7,8.9
		c-5.9,2.7-11.8,5.5-17.4,8.7c-5.7,3.2-11.3,6.8-16.8,10.5c-6.8,4.6-13.6,9.3-19.9,14.5c-10.4,8.5-20,17.9-29,27.9
		c-7.6,8.4-14.4,17.5-20.9,26.8c-6.1,8.7-11.5,17.9-16.1,27.4c-4.8,9.8-9.3,19.7-12.7,30.1c-2,6.1-4.2,12.1-5.8,18.2
		c-1.8,7-3.3,14.1-4.6,21.2c-1.1,6-2.2,12.1-2.7,18.2C142.1,287.5,142,296,141.7,303.3z"/>
	<path fill="#FFFFFF" d="M642.4,305.2c-1,12-1.9,24-3,36c-0.3,3.2-1.1,6.3-1.8,9.5c-0.8,3.9-1.6,7.8-2.5,11.6
		c-1,4.1-1.9,8.3-3.3,12.3c-2.8,8.2-5.6,16.4-8.8,24.5c-2,5-4.5,9.8-6.8,14.8c-3.9,8.4-8.6,16.3-13.7,24c-3.6,5.5-7.4,10.8-11.3,16
		c-6.7,9-14,17.4-22,25.2c-5.5,5.4-11.4,10.5-17.3,15.4c-6.2,5.1-12.5,10.2-19.2,14.6c-7.8,5.1-15.9,9.8-24.1,14.2
		c-8.5,4.6-17.4,8.7-26.6,11.9c-6.8,2.4-13.7,4.7-20.6,6.9c-7.7,2.3-15.4,4.3-23.4,5.3c-9.5,1.2-18.9,2.8-28.5,3.4
		c-9.8,0.6-19.7,0.5-29.5,0c-8.4-0.4-16.8-1.5-25.1-2.8c-7.4-1.2-14.7-2.7-21.9-4.6c-6.6-1.7-13.2-3.9-19.7-6.1
		c-13.2-4.4-25.7-10.3-37.9-17c-9.9-5.4-19.5-11.6-28.5-18.4c-12.9-9.8-25.1-20.4-35.7-32.7c-6.4-7.5-12.7-15.2-18.5-23.1
		c-4.4-6-8.2-12.3-11.8-18.8c-4.1-7.2-7.9-14.5-11.3-22c-3.2-7.1-6.1-14.3-8.5-21.7c-3-9.2-5.7-18.5-7.8-27.9
		c-1.8-7.8-2.5-15.8-3.6-23.7c-1.9-13.1-2.1-26.3-1.4-39.4c0.5-9.1,1.5-18.1,2.9-27.1c1.4-8.6,3.4-17.2,5.6-25.6
		c1.9-7.1,4.5-14,6.9-20.9c3-9,7-17.5,11.4-25.9c6.7-12.9,14.3-25.2,23.1-36.8c9.1-11.8,19.1-22.8,30-32.9
		c9.7-8.9,20.2-16.9,31.1-24.2c5.9-3.9,12.1-7.7,18.3-11c7-3.8,14.3-7.3,21.6-10.4c10.8-4.6,21.9-8.2,33.2-11.2
		c6.4-1.7,13-2.8,19.5-4.1c19.3-3.9,38.8-4.2,58.3-3.3c6.6,0.3,13.3,0.8,19.9,1.9c8.4,1.3,16.7,3.1,24.9,5.1
		c6.7,1.6,13.3,3.7,19.9,5.8c4.4,1.4,8.8,3.1,13.1,5c6.7,2.9,13.4,5.8,19.9,9.1c6.9,3.6,13.7,7.6,20.3,11.9
		c6.4,4.1,12.6,8.5,18.7,13.2c12.4,9.6,23.8,20.4,34.2,32.2c8.8,10.1,16.8,20.6,23.6,32.2c3.5,5.9,7.2,11.7,10.3,17.8
		c3.8,7.7,7.2,15.7,10.6,23.6c4.4,10.4,7.6,21.1,10,32.1c1.9,8.5,3.9,17.1,4.4,25.9c0.5,9.5,1.3,19,1.9,28.5c0,0.7,0,1.4,0,2.1
		C642.1,305.2,642.2,305.2,642.4,305.2z M395.2,65.7c-11.8,0-23.6,0.6-35.2,2.5c-6,0.9-12,2.1-17.8,3.5c-8.2,2.1-16.4,4.2-24.5,6.9
		c-6.9,2.3-13.7,5-20.3,8C289.1,90.4,281,94.6,273,99c-5,2.8-9.8,6-14.4,9.5c-8,6-16.1,12-23.7,18.6c-8.4,7.3-16.2,15.2-23.2,23.9
		c-5.2,6.5-10.5,13-15.1,19.9c-4.9,7.3-9.1,14.9-13.4,22.5c-5.3,9.3-9.6,19.1-13.2,29.2c-3.1,8.9-6.2,17.8-8.2,27.1
		c-1.5,7-3.1,14.1-4.1,21.2c-1,6.8-1.8,13.8-2,20.7c-0.3,8.8-0.5,17.7,0,26.4c0.5,8.5,1.7,17,2.8,25.5c0.5,3.8,1.1,7.7,2,11.4
		c1.3,5.5,2.7,11,4.4,16.5c1.8,6.1,3.6,12.1,5.9,18c2.4,6.2,5.1,12.3,8,18.2c3.3,6.8,6.9,13.5,10.6,20c5.3,9.3,11.8,17.8,18.4,26.2
		c7.2,9,15,17.5,23.5,25.4c9.1,8.5,18.9,16.2,29.2,23.3c6.1,4.2,12.5,7.9,19,11.5c6.5,3.6,13.3,6.8,20,10c4.1,1.9,8.4,3.5,12.7,5
		c4.1,1.5,8.3,3,12.5,4.2c5.9,1.7,11.8,3.5,17.7,4.8c6,1.4,12.1,2.4,18.2,3.4c4.8,0.7,9.6,1.2,14.4,1.5c7.3,0.5,14.6,1.1,21.9,1
		c12.6-0.2,25.1-1.2,37.5-3.3c4-0.7,8-1.2,11.9-2.2c5.5-1.3,10.9-2.8,16.3-4.5c6-1.8,12-3.8,17.8-6c5.9-2.3,11.7-5,17.5-7.7
		c10.7-4.9,20.9-10.8,30.6-17.4c5.7-3.8,11-8.2,16.5-12.4c9.5-7.2,18.2-15.4,26.2-24.3c8.8-9.7,17-19.9,24.1-31
		c5.7-8.8,10.9-17.7,15.3-27.2c3.2-7,6.3-14,9-21.1c2.2-5.5,4-11.2,5.6-17c1.7-6.2,3.2-12.6,4.5-19c1.2-5.7,2.4-11.5,2.9-17.3
		c1.1-12.3,2.1-24.6,1.4-37c-0.5-10.4-1-20.7-2.9-30.9c-1.1-5.9-2.3-11.8-3.7-17.7c-2.2-9.6-5.1-19-8.8-28.1
		c-3.5-8.4-6.9-16.9-11.3-24.9c-5.5-10-11.4-19.9-17.9-29.2c-5.6-8.1-12.2-15.5-18.8-22.9c-5.1-5.7-10.6-11.1-16.3-16.2
		c-7.8-7-16-13.6-24.7-19.3c-4.1-2.7-8.2-5.5-12.4-8c-5.4-3.2-10.9-6.2-16.5-9c-4.9-2.5-10-4.7-15.1-6.8c-5-2-10.1-3.9-15.3-5.6
		c-4.6-1.6-9.2-3.1-13.9-4.2c-6.7-1.7-13.4-3.2-20.1-4.4c-6.7-1.2-13.5-2.2-20.3-2.8C409.3,65.9,402.2,65.9,395.2,65.7z"/>
	<path fill="#FFFFFF" d="M575.2,304.4c-0.2,43.6-14.6,83.2-43.9,116.9c-33.7,38.7-76.7,59.2-127.9,62.6
		c-104.4,3.7-185.2-76.6-188.9-173c-3.9-101.8,76.5-184.3,175.6-187C488.7,121.1,574.8,200.1,575.2,304.4z M395,129.9
		c-96.2-0.6-174.3,78.5-174.6,172.9C220,399.6,298.8,478.9,396.7,478c94.7-0.9,172.5-78.4,172.6-174.3
		C569.4,208,490,129.3,395,129.9z"/>
	<path fill="#FFFFFF" d="M615.2,276.1c-0.7-0.1-1.3-0.2-2-0.3c-9.8-0.5-19.5-1-29.3-1.5c-2.6-0.1-2.6-0.2-2.9-2.7
		c-0.3-2-0.6-4-0.9-6.1c-0.3-2,0-2.3,2-2.6c6.6-0.8,13.1-1.8,19.6-2.6c6.4-0.8,12.9-1.6,19.3-2.5c3-0.4,3.1-0.4,3.6,2.6
		c0.6,3.9,0.6,3.9-3.3,4.4c-9.9,1.3-19.8,2.6-29.7,3.9c-0.2,0-0.4,0.1-0.6,0.4c0.4,0.1,0.8,0.2,1.3,0.3c7.2,0.4,14.4,0.8,21.6,1.2
		c3.5,0.2,7.1,0.4,10.6,0.5c1,0,1.4,0.4,1.5,1.4c0.2,1.5,0.5,3.1,0.7,4.6c0.2,1.1-0.3,1.7-1.3,2c-5.5,1.7-11,3.4-16.4,5.1
		c-4.6,1.5-9.2,3-13.7,4.6c-0.2,0.1-0.4,0.2-0.6,0.8c1.2-0.1,2.4-0.1,3.6-0.2c9.3-1.2,18.5-2.5,27.8-3.7c1.5-0.2,2.2,0.4,2.3,1.8
		c0.5,6,1.3,4.8-4,5.6c-11.1,1.6-22.3,2.9-33.4,4.4c-1.5,0.2-3,0.5-4.4,0.8c-1.4,0.2-2.1-0.3-2.3-1.8c-0.2-2.3-0.6-4.6-0.9-6.9
		c-0.3-2.2-0.1-2.5,2-3.1c4.3-1.4,8.7-2.7,13-4.2c5.2-1.7,10.5-3.5,15.7-5.3c0.4-0.1,0.8-0.4,1.1-0.5
		C615.2,276.4,615.2,276.3,615.2,276.1z"/>
	<path fill="#FFFFFF" d="M208,407.2c-3.4,1.9-6.7,3.8-10.1,5.7c-1.3,0.7-2.5,1.4-3.8,2.1c-0.9,0.5-1.6,0.3-2-0.6
		c-0.8-1.3-1.5-2.6-2.2-3.9c-0.7-1.2,0-1.8,0.9-2.3c4.5-2.6,8.9-5.1,13.4-7.7c4.1-2.4,8.3-4.7,12.4-7.1c3.4-1.9,6.7-3.8,10-5.8
		c0.9-0.5,1.6-0.4,2.2,0.6c2.9,5.1,5.9,10.1,8.7,15.2c2.7,5,1.1,11.4-3.6,14.6c-1.5,1-3,1.9-4.6,2.6c-2.5,1.1-5.1,0.9-7.6,0
		c-1.1-0.4-1.7,0-1.9,1c-0.5,3.3-2.9,5-5.5,6.5c-2.3,1.4-4.6,2.7-6.8,4.2c-0.8,0.5-1.3,1.5-1.9,2.3c-0.6,0.9-1.2,1.1-1.8,0
		c-0.9-1.7-1.9-3.4-2.8-5.1c-0.6-1.1-0.2-1.8,0.7-2.5c2.8-1.8,5.5-3.6,8.3-5.3c3.1-1.8,4.4-4.5,2.1-8.2c-1.1-1.8-2.1-3.7-3.2-5.6
		C208.8,407.9,208.4,407.6,208,407.2z M223.9,414.4c2.8,0,4.5-1.6,6.1-3.3c1.1-1.2,1.3-2.7,0.6-4c-1.5-2.9-3.2-5.7-4.8-8.5
		c-0.4-0.8-1.1-1-1.9-0.5c-2.6,1.5-5.3,3-7.9,4.6c-0.4,0.3-0.8,1.4-0.6,1.8c1.4,2.6,2.9,5.2,4.5,7.8
		C220.8,413.5,222.1,414.6,223.9,414.4z"/>
	<path fill="#FFFFFF" d="M311.4,520.3c-2.4-1.1-4.7-2-6.7-3.2c-0.5-0.3-0.6-2.1-0.2-3.1c1.1-3.2,2.6-6.2,3.9-9.4
		c0.9-2.2,0.7-3.8-1.4-5.1c-2.6-1.6-5.5-2.9-8.3-4.2c-0.3-0.2-1.4,0.6-1.7,1.2c-1.3,2.6-2.5,5.3-3.7,8c-0.7,1.5-1.4,3-2.1,4.5
		c-0.5,1-1.2,1.3-2.2,0.9c-1.4-0.6-2.9-1.1-4.2-1.9c-0.4-0.2-0.6-1.3-0.4-1.8c1.1-2.7,2.4-5.4,3.6-8.1c3.9-8.4,7.7-16.9,11.6-25.3
		c0.7-1.5,1.3-2.9,2-4.4c0.5-1.1,1.3-1.4,2.5-0.8c5.2,2.4,10.5,4.7,15.6,7.3c4.9,2.5,7.1,7,5.8,13c-0.9,4-2.8,7.7-6.9,9.6
		c-0.7,0.3-1.5,0.3-2.1,0.7c-0.4,0.2-0.9,1.1-0.7,1.4c1.8,3.5,0.7,6.7-0.8,9.9c-1,2.2-2,4.3-2.8,6.5
		C311.6,517.1,311.6,518.5,311.4,520.3z M312.4,493c1.1-0.7,2.4-1.1,3.1-2c0.9-1.1,1.6-2.5,2.1-3.9c0.8-2.2-0.3-4.8-2.5-5.8
		c-2.6-1.2-5.2-2.4-7.7-3.6c-0.9-0.4-1.6-0.1-2,0.7c-1.4,2.8-2.7,5.6-4,8.4c-0.4,1-0.2,1.6,0.9,2c1.1,0.4,2,0.9,3.1,1.4
		C307.6,491.1,309.9,492,312.4,493z"/>
	<path fill="#FFFFFF" d="M260.5,149.2c-2.5-2.6-4.9-5.2-7.4-7.8c-3.9-4.2-7.8-8.4-11.8-12.6c-0.8-0.9-0.7-1.6,0.1-2.3
		c0.9-0.8,1.8-1.5,2.6-2.4c1-1.1,1.8-1,2.8,0.1c3.5,3.9,7.1,7.7,10.7,11.6c5.6,6.1,11.3,12.3,16.9,18.4c1,1.1,1.1,1.8,0,2.8
		c-0.8,0.6-1.6,1.3-2.2,2.1c-1.1,1.5-2.3,1.6-4,0.9c-6.5-2.8-13.1-5.4-19.7-8c-3.2-1.3-6.5-2.5-10-3.5c0.3,0.5,0.6,1,1,1.4
		c6.2,6.6,12.3,13.2,18.5,19.8c0.9,0.9,0.9,1.6,0,2.4c-0.9,0.7-1.7,1.5-2.5,2.3c-1.3,1.3-1.7,1.3-3-0.1c-2.1-2.3-4.2-4.6-6.3-6.9
		c-7.1-7.6-14.1-15.3-21.3-22.9c-1-1.1-1.1-1.8,0-2.8c1.1-1,2.2-2,3.3-3.1c0.8-0.8,1.6-0.9,2.6-0.4c7.5,3.1,15.1,6.1,22.7,9.2
		c1.7,0.7,3.5,1.4,5.2,2.1c0.4,0.2,0.9,0.2,1.3,0.2C260.3,149.5,260.4,149.3,260.5,149.2z"/>
	<path fill="#FFFFFF" d="M458.3,505.1c0.4,0.2,0.8,0.6,1.3,0.8c2.5,1,3.7,3.1,4.5,5.4c1,2.8,1.8,5.7,2.9,8.5
		c0.5,1.3,1.5,2.5,2.5,3.9c-0.9,0.3-1.7,0.7-2.5,1c-1.1,0.3-2.2,0.6-3.2,0.9c-1.8,0.6-2.6,0.3-3.3-1.5c-1-2.6-1.8-5.3-2.7-7.9
		c-0.2-0.6-0.4-1.2-0.6-1.8c-1.4-3.2-2.9-4-6.2-3.2c-2.3,0.6-4.5,1.4-6.8,2c-1.2,0.3-1.5,1.1-1.1,2.2c1.1,3.6,2.1,7.2,3.2,10.8
		c0.2,0.8,0.4,1.5,0.7,2.3c0.6,1.8,0.4,2.1-1.5,2.6c-1.1,0.3-2.3,0.6-3.4,0.9c-1,0.3-1.6,0.2-1.9-1c-1.8-6.4-3.7-12.9-5.7-19.3
		c-1.7-5.5-3.4-11.1-5.1-16.6c-0.2-0.7-0.3-1.5-0.6-2.2c-1.2-3.3-1.1-3.4,2.4-4.3c5.1-1.4,10.2-2.9,15.3-4.4c2.7-0.8,5.3-0.4,7.6,1
		c5.4,3.3,7.3,8.4,6.6,14.5C460.1,501.6,459,503.2,458.3,505.1z M447.8,492c-0.2,0-0.4,0-0.6,0c-3,0.8-6.1,1.6-9.1,2.5
		c-0.9,0.3-1.2,1-0.9,1.9c0.9,2.9,1.9,5.7,2.7,8.6c0.3,1.2,1,1.4,2,1.1c2.8-0.9,5.6-1.7,8.4-2.7c0.8-0.3,1.6-0.9,2.1-1.6
		c1.5-2.2,0.8-4.5-0.1-6.7C451.4,493.1,450,492,447.8,492z"/>
	<path fill="#FFFFFF" d="M185.3,359.5c-3.5,0-6.8-0.8-9.9-2.2c-4.3-1.9-6.8-5.3-7.6-10.1c-0.6-4-1.8-7.9-2.8-11.9
		c-0.5-2.1-0.3-2.3,1.8-2.8c4.8-1.1,9.5-2.2,14.3-3.2c6.5-1.5,13.1-2.9,19.6-4.3c1.9-0.4,3.8-1,5.7-1.5c1.2-0.3,1.9-0.2,2.2,1.2
		c1.1,5.2,2.5,10.3,3.4,15.6c0.9,5.6-1.4,10-6.9,13.6c-4.3,2.7-9.1,4.1-14,4.9C189.2,359,187.2,359.3,185.3,359.5z M184.4,351.5
		c6.8-0.3,12.5-1.2,17.4-4.9c1.7-1.3,2.9-4,2.5-5.9c-0.5-2.2-1-4.3-1.4-6.4c-0.2-1.4-0.9-1.8-2.2-1.5c-2,0.4-4,0.8-6,1.2
		c-6.4,1.4-12.8,2.9-19.2,4.2c-1.5,0.3-1.8,0.9-1.5,2.2c0.5,2,0.9,4.1,1.5,6.1c0.6,2.1,1.8,3.8,4.1,4.3
		C181.6,351.1,183.4,351.3,184.4,351.5z"/>
	<path fill="#FFFFFF" d="M376.3,99.2c-0.7,3.3-1.2,6.6-2.1,9.8c-1.5,4.9-4.8,7.9-9.9,8.8c-4.5,0.7-8.9,1.5-13.4,2.1
		c-2.5,0.4-2.6,0.1-3-2.3c-1.1-7.2-2.2-14.3-3.4-21.5c-0.9-5.9-1.9-11.9-2.9-17.8c-0.3-1.5,0.2-2.1,1.7-2.3
		c4.2-0.6,8.5-1.4,12.7-2.2c8.6-1.5,13.7,2.5,17.1,10.5c2,4.7,2.9,9.7,2.7,14.8C376,99.2,376.1,99.2,376.3,99.2z M368.5,99.2
		c-0.3-4.6-1.5-8.9-3-13.1c-1-2.8-4.4-5.1-7-4.8c-2.5,0.2-5,0.9-7.4,1.3c-0.9,0.2-1.2,0.8-1,1.7c0.2,1,0.5,2,0.6,3
		c1.2,7.6,2.5,15.3,3.7,22.9c0.2,1.2,0.8,1.5,1.9,1.3c2-0.3,4.1-0.5,6-1.1c2-0.5,3.8-1.6,4.5-3.8
		C367.5,104.2,367.9,101.7,368.5,99.2z"/>
	<path fill="#FFFFFF" d="M318.1,130.5c-0.3-0.4-0.8-0.9-1-1.4c-1.5-4.1-2.9-8.3-4.4-12.5c-2.1-5.8-4.2-11.5-6.3-17.2
		c-1.1-3-2-6-3.2-9c-0.5-1.4-0.1-2.1,1.2-2.6c4.9-1.7,9.7-3.4,14.6-5.1c2.2-0.8,4.4-1.6,6.6-2.5c2.1-0.8,2.4-0.7,3.2,1.4
		c0.5,1.2,0.9,2.4,1.3,3.6c0.4,1.2,0,1.8-1.3,2.2c-5,1.7-9.9,3.6-14.9,5.3c-1.2,0.4-1.5,1.1-1,2.2c0.7,2,1.4,3.9,2.1,5.9
		c0.3,1,0.9,1.1,1.9,0.8c4.7-1.6,9.3-3.2,14-4.8c1.1-0.4,1.8-0.3,2.1,1.1c0.4,1.5,0.9,2.9,1.4,4.3c0.3,1,0.3,1.6-0.9,2
		c-4.4,1.5-8.7,3.1-13.1,4.6c-2.1,0.7-2.3,1-1.6,3c0.7,2.2,1.5,4.5,2.2,6.7c0.7,1.9,0.9,2.1,2.9,1.5c5-1.8,10-3.5,15-5.4
		c1.8-0.7,2.1-0.6,2.8,1.1c0.6,1.4,1.1,2.8,1.6,4.2c0.4,1,0,1.6-1,2c-4.2,1.5-8.4,3-12.6,4.5c-3,1.1-6.1,2.1-9.1,3.2
		C320,129.9,319.2,130.1,318.1,130.5z"/>
	<path fill="#FFFFFF" d="M215.9,357.6c0.3,0.3,0.8,0.6,1,1c2.9,7.4,5.8,14.9,8.7,22.4c0.4,1.1,0.2,1.7-1,2c-1.3,0.4-2.6,1-3.9,1.6
		c-1.4,0.6-2.2,0.3-2.7-1.1c-1.3-3.5-2.6-7-3.9-10.6c-0.6-1.5-1.1-3-1.7-4.5c-0.3-0.9-0.8-1.1-1.7-0.8c-2.2,0.8-4.3,1.6-6.5,2.3
		c-1.1,0.4-1,1.1-0.7,1.9c1.6,4.2,3.1,8.3,4.8,12.5c1.1,2.9,1.1,3.1-1.9,4.1c-0.9,0.3-1.7,0.6-2.6,0.9c-1.3,0.5-2,0-2.5-1.2
		c-1.6-4.2-3.2-8.3-4.8-12.5c-0.8-2.1-1.1-2.2-3.2-1.4c-2.1,0.8-4.1,1.5-6.2,2.3c-2.1,0.7-2.3,1.2-1.6,3.2c1.9,5,3.9,9.9,5.8,14.8
		c0.7,1.7,0.6,1.9-1.1,2.5c-1.4,0.5-2.7,1-4.1,1.5c-0.9,0.3-1.6,0.2-2-0.9c-1.7-4.5-3.5-8.9-5.2-13.3c-1.2-3.1-2.4-6.2-3.6-9.3
		c-0.7-1.6-0.5-1.9,1.2-2.6c6.1-2.3,12.1-4.6,18.2-6.9c6.6-2.5,13.3-5,19.9-7.5C214.8,357.9,215.2,357.8,215.9,357.6z"/>
	<path fill="#FFFFFF" d="M609.3,307.7c-0.7,5-1.3,9.6-2,14.2c-0.3,2.3-0.1,2.6,2.2,3c2.4,0.4,4.9,0.6,7.4,0.9c1.3,0.2,2-0.4,2.1-1.7
		c0.7-5.4,1.4-10.9,2.1-16.3c0.2-1.8,0.6-2.1,2.5-1.7c1.3,0.2,2.5,0.5,3.8,0.6c1.2,0.1,1.7,0.7,1.6,1.9c-0.8,5.6-1.6,11.2-2.4,16.7
		c-0.3,2.4-0.7,4.9-0.9,7.4c-0.1,1.4-0.7,1.9-2.1,1.7c-7.4-1.1-14.8-2.2-22.2-3.3c-5.6-0.8-11.2-1.6-16.8-2.3
		c-3.6-0.5-3.7-0.5-3.2-4.1c1-6.9,1.9-13.8,2.9-20.8c0.3-2.1,0.6-2.3,2.7-2.1c1.2,0.2,2.4,0.4,3.7,0.5c1.5,0.2,1.8,1,1.6,2.4
		c-0.4,2.4-0.7,4.8-1.1,7.2c-0.4,2.9-0.8,5.7-1.2,8.6c-0.2,1.2,0.5,1.6,1.6,1.8c1.9,0.2,3.7,0.5,5.6,0.7c1.8,0.3,2.2,0,2.4-1.8
		c0.5-3.6,0.9-7.3,1.4-10.9c0.2-1.2,0.3-2.4,0.7-3.5c0.2-0.5,0.9-1.2,1.3-1.1c1.8,0.1,3.6,0.4,5.4,0.8
		C608.9,306.7,609.2,307.5,609.3,307.7z"/>
	<path fill="#FFFFFF" d="M554.9,199c-3.6,0.1-6.5-0.8-8.8-2.9c-4-3.7-7.1-7.9-6.9-13.8c0.2-4.4,2.7-7.5,5.9-10.1
		c0.3-0.2,1.2,0,1.5,0.3c1.1,1.3,2.1,2.6,2.9,4c0.2,0.4,0,1.2-0.4,1.7c-3.7,4.7-1.3,11.8,4.5,13.3c2,0.5,3.7,0,5.1-1.5
		c1.7-1.9,1.2-4,0.6-6.1c-1.1-3.5-2.4-6.9-3.5-10.3c-1.4-4.3,0-8,3.2-10.9c2.7-2.5,5.9-4.4,9.7-4.7c5.6-0.4,9.3,2.7,12.2,6.9
		c3.9,5.8,3.2,12.7-1.8,17.6c-1.3,1.3-2,1.3-3.1-0.1c-0.2-0.3-0.4-0.6-0.7-0.9c-1.9-1.8-2.7-3.4-0.5-5.8c0.8-0.9,0.8-3,0.6-4.4
		c-0.4-2.8-3.4-5.6-5.9-5.9c-4-0.6-6.7,2.6-5.4,6.4c1.2,3.6,2.5,7.2,3.8,10.8c1.9,5.4,0.3,9.8-5,13.6
		C560.5,198,557.7,199.1,554.9,199z"/>
	<path fill="#FFFFFF" d="M419.9,491.4c2.7-0.2,2.7-0.2,3,2.4c0.7,6.2,1,4.7-4.5,5.7c-4.1,0.7-8.2,1-12.3,1.5c-1.7,0.2-2,0.6-1.7,2.3
		c0.3,1.9,0.5,3.8,0.8,5.8c0.2,1.2,0.8,1.6,2,1.5c4.6-0.6,9.2-1.2,13.7-1.8c2.1-0.3,2.2-0.2,2.4,1.8c0.2,1.3,0.4,2.5,0.7,3.8
		c0.3,1.3-0.1,2-1.6,2.1c-4.7,0.5-9.5,1.2-14.2,1.8c-1.2,0.2-1.7,0.7-1.5,1.9c0.4,2.7,0.9,5.3,1.2,8c0.2,1.3,0.7,1.7,2.1,1.5
		c4.8-0.7,9.6-1.3,14.4-1.9c0.3,0,0.6-0.1,1-0.1c2.9-0.3,3.1-0.1,3.4,2.8c0.1,0.9,0.1,1.8,0.3,2.7c0.2,1.2-0.2,1.9-1.5,2.1
		c-7.6,1.1-15.1,2.2-22.7,3.3c-2.8,0.4-2.9,0.4-3.3-2.3c-1.2-8.7-2.4-17.3-3.6-26c-0.6-4.6-1.3-9.3-2-13.9c-0.2-1.1-0.1-1.9,1.3-2
		C404.8,493.3,412.3,492.3,419.9,491.4z"/>
	<path fill="#FFFFFF" d="M183.9,292.7c6.7-0.3,13.3-0.7,20-1c2.3-0.1,2.4,0.1,2.5,2.3c0.3,7.4,0.5,14.8,0.8,22.2
		c0.1,1.9-0.2,2.2-2.1,2.3c-1.1,0.1-2.3,0.1-3.4,0.1c-2,0.1-2.1-0.1-2.2-2c-0.2-5.1-0.4-10.1-0.6-15.2c-0.1-2-0.4-2.3-2.5-2.2
		c-1.9,0.1-3.7,0.4-5.6,0.5c-1.2,0.1-1.7,0.6-1.6,1.8c0.3,4.5,0.5,9,0.7,13.5c0.1,2.5,0.1,2.5-2.5,2.7c-1,0.1-2,0.1-3.1,0.2
		c-1.5,0.1-2.2-0.4-2.2-2c-0.1-4.6-0.4-9.2-0.5-13.9c0-1.6-0.6-2.1-2.2-2c-2.6,0.2-5.3,0.3-7.9,0.4c-1.4,0.1-1.8,0.7-1.7,2.1
		c0.3,5.3,0.6,10.6,0.8,15.9c0.1,2.4,0,2.6-2.4,2.6c-1.2,0-2.4,0-3.5,0.1c-1.2,0.1-1.6-0.5-1.7-1.6c-0.2-3.5-0.5-7-0.7-10.5
		c-0.3-4.6-0.4-9.1-0.8-13.7c-0.1-1.5,0.4-2.1,1.8-2.1C170.1,293.4,177,293,183.9,292.7C183.9,292.7,183.9,292.7,183.9,292.7z"/>
	<path fill="#FFFFFF" d="M353.7,505.3c-0.6,2.1-1.1,4.1-1.8,5.9c-0.1,0.3-1.1,0.6-1.6,0.5c-4.6-1.3-9.2-2.6-13.7-4
		c-1.8-0.6-2.2-0.4-2.7,1.5c-0.6,2.5-1.3,5-2.1,7.4c-0.4,1.3,0,1.8,1.1,2.1c3.9,1.1,7.7,2.2,11.6,3.3c1.7,0.5,3.4,1,5.1,1.5
		c1,0.3,1.3,0.9,1,1.8c-0.5,1.7-1.1,3.4-1.7,5c-0.3,1.1-1.1,0.8-1.8,0.6c-2.1-0.6-4.2-1.2-6.3-1.8c-5.1-1.5-10.2-2.9-15.3-4.4
		c-0.6-0.2-1.2-0.3-1.9-0.5c-1.2-0.3-1.5-1-1.1-2.3c2.1-7,4-14,6-21.1c1.8-6.3,3.7-12.6,5.5-18.9c0.3-1.1,1-1,1.8-0.8
		c4.5,1.3,9.1,2.7,13.6,4c2.8,0.8,5.6,1.6,8.4,2.3c2.1,0.6,2.3,0.8,1.7,2.8c-0.3,1.2-0.5,2.4-0.8,3.6c-0.3,1.1-0.9,1.6-2.1,1.2
		c-4.9-1.4-9.9-2.8-14.9-4.2c-2.2-0.6-2.3-0.7-3,1.5c-0.5,1.9-1,3.7-1.6,5.6c-0.3,1,0,1.6,1.1,1.9c4.4,1.2,8.8,2.4,13.2,3.7
		c0.5,0.1,1.1,0.3,1.5,0.5C353.2,504.5,353.5,505,353.7,505.3z"/>
	<path fill="#FFFFFF" d="M396,104.2c-0.2-2.6,0.1-2.8,2.7-2.6c0.3,0,0.5,0,0.8,0c4.4,0.2,3.7,0.8,4.2,3.6c0.4,2.5,2.3,3.8,4.6,4.2
		c2.1,0.4,4.4,0.3,6.5,0c2.2-0.3,3.4-1.9,3.7-4.1c0.3-2.2-0.5-4-2.5-4.9c-2.8-1.4-5.7-2.5-8.6-3.7c-3.7-1.5-7.2-3.2-8.7-7.3
		c-1.1-3.1-0.8-6.2,0-9.2c1.6-6.3,6.9-10,13.5-9.6c6.1,0.3,10.9,2.8,13.3,8.8c0.6,1.6,0.7,3.4,0.9,5.2c0.1,1.1-0.5,1.7-1.7,1.6
		c-1.4-0.2-2.9-0.2-4.3-0.6c-0.5-0.1-1.2-0.9-1.3-1.5c-1-5.8-7.3-6.9-11-5.1c-2,0.9-2.8,2.6-2.8,4.7c-0.1,2,1,3.4,2.8,4.1
		c2.9,1.2,5.8,2.3,8.7,3.4c3.2,1.2,6.1,2.8,7.9,5.8c1.7,2.8,1.7,6.1,1.1,9.3c-0.7,3.2-2,6.1-4.6,8.3c-3,2.7-6.6,3.2-10.4,3
		c-4.1-0.2-8.1-1.1-11.2-4.2C397,110.9,396.2,107.7,396,104.2z"/>
	<path fill="#FFFFFF" d="M537.4,486.5c-0.4,0.4-0.7,0.9-1.1,1.1c-6,4.1-12.1,8.2-18.1,12.3c-0.7,0.5-1.4,1-2.1,1.5
		c-0.9,0.7-1.7,0.7-2.4-0.4c-1.5-2.2-3-4.4-4.5-6.7c-3.7-5.4-7.4-10.7-11-16.1c-2.6-3.8-5.1-7.6-7.7-11.3c-0.8-1.1-0.7-1.8,0.5-2.6
		c6.2-4.2,12.4-8.4,18.7-12.6c1.9-1.3,2-1.3,3.3,0.7c0.6,0.9,1.2,1.9,1.9,2.8c0.9,1.1,0.7,1.9-0.5,2.8c-4.1,2.7-8.2,5.6-12.3,8.3
		c-2.2,1.5-2.3,1.5-0.8,3.7c0.9,1.3,1.9,2.6,2.8,3.9c0.8,1.3,1.7,1.3,2.9,0.5c3.8-2.6,7.6-5.1,11.3-7.7c1.2-0.8,2-0.8,2.8,0.4
		c0.8,1.3,1.7,2.6,2.6,3.9c0.6,0.9,0.4,1.4-0.5,2c-4,2.7-8,5.5-12,8.1c-1.3,0.8-1.4,1.6-0.5,2.8c1.5,2.1,3,4.2,4.4,6.4
		c0.8,1.1,1.5,1.4,2.7,0.5c4.5-3.1,9.1-6.1,13.6-9.2c1.1-0.8,2-0.8,2.8,0.5c0.8,1.3,1.7,2.5,2.5,3.7
		C537,485.9,537.2,486.2,537.4,486.5z"/>
	<path fill="#FFFFFF" d="M374.9,537c-4.9-0.4-9.6-1.4-13-5.3c-2.8-3.1-3-6.9-2.7-10.7c0-0.4,0.8-0.9,1.3-0.9
		c0.9-0.1,1.8,0.2,2.7,0.3c2.9,0.5,2.9,0.5,3.3,3.4c0.3,2.4,1.9,3.9,4,4.7c2.3,0.9,4.8,1.3,7.2,0.4c2.2-0.7,3.5-2.4,3.7-4.6
		c0.2-2-1-4-3-4.9c-3.2-1.5-6.3-3.2-9.6-4.6c-4.7-2.1-6.7-5.8-6.6-10.8c0.1-3.4,0.8-6.6,3-9.3c2.6-3.4,6.1-5,10.4-4.8
		c5.9,0.2,11,2.2,13.6,8c0.9,2.1,1,4.6,1.3,6.9c0.1,1.1-0.6,1.7-1.8,1.5c-1.5-0.2-3-0.4-4.4-0.8c-0.5-0.1-1-0.8-1.1-1.2
		c-0.9-5.4-5.1-8-10.3-6.3c-2.3,0.7-3.5,2.4-3.5,4.8c0,2.1,1.1,3.6,3.2,4.5c3.6,1.6,7.2,3.1,10.6,5c5.1,3,6.8,7.3,5.1,13.7
		c-0.5,1.8-1.1,3.6-2.1,5.2C383.7,535.4,379.6,536.8,374.9,537z"/>
	<path fill="#FFFFFF" d="M557.8,464.6c-3.6,0.4-6.5-1.3-9.4-3.3c-0.8-0.6-0.9-1.2-0.2-2c1.1-1.1,2.1-2.3,3.2-3.4
		c0.3-0.3,1.2-0.4,1.7-0.2c5.2,2.5,11.4-0.8,12.3-6.6c0.3-2.1-0.5-3.7-2.1-4.9c-1.6-1.2-3.5-1.5-5.3-0.4c-2.5,1.5-4.9,3.2-7.4,4.5
		c-2.3,1.2-4.8,2.6-7.4,3c-4.7,0.7-8.2-2-11.1-5.4c-2.6-3.1-3.9-6.6-3.1-10.8c1.2-6.1,7.6-12,13.8-12.2c3.2-0.1,6.3,0.9,9,3
		c0.8,0.6,0.8,1.2,0.2,1.9c-0.5,0.6-1,1.2-1.5,1.9c-1.9,2.3-1.9,2.3-4.7,1.4c-2.9-0.9-5.5-0.1-7.4,2.2c-2.2,2.8-2.7,5.2-1.3,7.5
		c1.4,2.4,4.2,3.1,6.5,1.6c3-1.8,5.8-3.9,8.9-5.5c2-1.1,4.2-2.1,6.4-2.3c5.5-0.4,9.2,3.1,11.8,7.3c4.4,7.1,1.1,14.2-4.5,18.7
		c-0.8,0.6-1.6,1.3-2.4,1.9C562.1,464.1,560.1,464.8,557.8,464.6z"/>
	<path fill="#FFFFFF" d="M611,386.2c-0.6,6.4-3.2,11.8-9.3,14.7c-3.4,1.6-7,1.1-10.5-0.2c-0.3-0.1-0.7-1.1-0.5-1.5
		c0.5-1.5,1.1-2.9,1.9-4.3c0.3-0.4,1.2-0.8,1.7-0.7c2.4,0.3,4.7,0.2,6.4-1.8c2.1-2.5,3.3-5.4,2.7-8.8c-0.4-2.1-2-3.3-4-3.7
		c-2.1-0.5-3.8,0.4-5.1,2c-2.5,3-4.9,6.1-7.5,9.1c-2.7,3.2-8.1,4.4-12,2.7c-2-0.9-4.1-1.8-5.8-3.1c-6.1-4.8-5.5-11.6-2.3-17.4
		c3.4-6.2,8.9-8,15.6-6.7c1.7,0.3,2,1.1,1.3,2.7c-0.4,1-0.8,2-1.1,3c-0.4,1.4-1.3,1.9-2.7,1.6c-2.1-0.4-3.8,0.3-5.3,1.6
		c-2.2,1.9-3,6.8-1.6,9.3c1.6,2.7,5.8,2.9,8,0.3c1.9-2.3,3.7-4.7,5.6-7c1.3-1.5,2.6-3.1,4.1-4.2c2.9-2.1,6.3-2.4,9.7-1.1
		c2.2,0.9,4.4,2.1,6.3,3.5C610,378.4,611.5,382,611,386.2z"/>
	<path fill="#FFFFFF" d="M562.9,144.7c-0.3,0.5-0.4,0.8-0.6,1.1c-1.1,1.1-2.2,2.2-3.3,3.4c-0.9,0.9-1.6,0.8-2.5,0
		c-3.6-3.5-7.2-6.9-10.8-10.4c-1.7-1.6-2-1.6-3.6,0c-1.2,1.3-2.5,2.6-3.7,3.8c-0.9,0.9-1,1.6,0,2.5c3.5,3.3,6.9,6.7,10.3,9.9
		c1,0.9,1.2,1.6,0.2,2.6c-1,1-2,2-2.9,3.1c-0.9,1.1-1.6,1.1-2.6,0.1c-3.2-3.2-6.5-6.4-9.8-9.5c-1.9-1.9-1.9-1.7-3.5,0
		c-1.8,1.9-3.5,3.7-5.4,5.6c-0.9,0.9-0.8,1.5,0.1,2.4c4,3.7,8,7.5,12,11.2c1.5,1.4,1.5,1.6,0.1,3.1c-0.8,0.9-1.7,1.7-2.4,2.6
		c-1,1.2-1.9,1.2-3,0.1c-1.4-1.4-2.9-2.8-4.4-4.2c-4.3-4.1-8.6-8.2-13-12.3c-0.9-0.9-1-1.6-0.1-2.5c9.5-9.9,19.1-19.8,28.6-29.7
		c0.9-0.9,1.6-1,2.5-0.1c5.5,5.4,11.1,10.8,16.7,16.1C562.2,143.9,562.5,144.3,562.9,144.7z"/>
	<path fill="#FFFFFF" d="M245.8,183.3c0.4,6.3-5.8,14.4-13.2,15.3c-3.7,0.4-7.2-0.6-10.2-2.8c-8.1-6-16.2-12-24.3-18
		c-0.8-0.6-1-1.2-0.4-2c0.9-1.3,1.8-2.5,2.7-3.8c0.6-0.8,1.2-1,2.1-0.3c7.3,5.5,14.6,10.9,22,16.3c1.8,1.4,3.7,2.7,6.2,2.6
		c2.7-0.2,5.3-1.8,6.4-4.4c1.2-2.8,0.7-5.4-1.6-7.3c-2.7-2.4-5.7-4.5-8.7-6.7c-5.2-3.9-10.5-7.7-15.7-11.5c-1-0.8-1.2-1.4-0.3-2.5
		c0.9-1.1,1.7-2.3,2.5-3.5c0.7-1,1.4-1.2,2.5-0.4c6.5,4.9,13.1,9.6,19.5,14.5c2.5,1.9,4.9,4,7.1,6.2
		C245,177.2,246,180.1,245.8,183.3z"/>
	<path fill="#FFFFFF" d="M232.2,469.6c-1.7-1.9-3.3-3.6-4.8-5.4c-0.3-0.3-0.1-1.2,0.2-1.7c1.1-1.7,2.4-3.4,3.7-5.1
		c0.8-1.1,0.9-2.1,0-3.2c-2.3-2.5-4.6-5-6.8-7.5c-0.8-0.9-1.5-0.9-2.4-0.5c-1.9,0.9-3.9,1.8-5.8,2.8c-0.9,0.5-1.5,0.4-2.1-0.3
		c-1.2-1.4-2.4-2.8-3.5-4.2c-0.9-1.2,0.1-1.6,0.9-2c2-1,4-1.9,6-2.8c5.4-2.4,10.8-4.7,16.2-7.1c5.7-2.6,11.4-5.2,17.2-7.7
		c0.5-0.2,1.5-0.1,1.8,0.2c1.6,1.6,3.1,3.4,4.6,5.2c0.3,0.3,0.2,1.3-0.1,1.7c-4.8,7.4-9.7,14.8-14.6,22.2c-3,4.5-5.9,9.1-8.9,13.6
		C233.3,468.4,232.8,468.9,232.2,469.6z M246.6,435.2c-0.1-0.1-0.2-0.2-0.3-0.3c-0.4,0.1-0.7,0-1,0.2c-4.3,2.1-8.7,4.2-13,6.3
		c-1.1,0.5-1,1.3-0.3,2.1c1.2,1.5,2.5,2.9,3.8,4.4c1,1.2,1.6,0.8,2.4-0.3c2-3,4.1-5.9,6.2-8.9C245,437.6,245.8,436.4,246.6,435.2z"
		/>
	<path fill="#FFFFFF" d="M454.8,125.2c1.2-1.5,2.1-2.7,3.1-3.8c8.6-10,17.2-19.9,25.7-29.9c0.9-1.1,1.7-1.4,3-0.6
		c1.5,0.8,3.1,1.6,4.7,2.1c1.5,0.5,1.7,1.4,1.5,2.7c-1,6.5-1.9,13.1-2.9,19.6c-1.1,7.3-2.2,14.7-3.3,22c-0.4,2.4-0.4,2.4-2.6,1.3
		c-1.3-0.6-2.5-1.2-3.8-1.7c-1.1-0.5-1.4-1.2-1.2-2.3c0.4-2,0.7-3.9,1-5.9c0.2-1.2-0.1-1.9-1.4-2.5c-3-1.2-5.9-2.7-8.7-4.1
		c-1.3-0.6-2.3-0.6-3.2,0.6c-1.3,1.6-2.7,3.1-3.9,4.7c-0.7,0.9-1.4,1.1-2.5,0.5C458.6,126.9,456.9,126.2,454.8,125.2z M484.3,101.7
		c-0.4,0.4-0.7,0.5-0.9,0.8c-3.2,3.8-6.3,7.7-9.5,11.6c-0.8,1-0.1,1.6,0.7,2c1.8,0.8,3.6,1.4,5.3,2.3c1.2,0.6,1.8,0.3,2-1
		c0.8-4.7,1.6-9.4,2.4-14.1C484.5,102.7,484.3,102.3,484.3,101.7z"/>
	<path fill="#FFFFFF" d="M210.6,264.5c-0.5,3.4-0.9,6.8-1.4,10.2c-0.6,3.9-1.2,7.9-1.8,11.8c-0.4,2.4-0.8,2.6-3.1,2
		c-1-0.2-2-0.4-3-0.5c-1.5-0.1-2-0.8-1.8-2.2c0.4-2.3,0.7-4.6,1-6.9c0.4-2.4,0.8-4.8,1.2-7.1c0.3-2,0.2-2.3-1.8-2.6
		c-2.2-0.4-4.4-0.6-6.5-0.9c-1.1-0.1-1.6,0.3-1.8,1.5c-0.5,4.1-1.2,8.2-1.7,12.3c-0.2,1.1-0.7,1.6-1.8,1.5c-1.6-0.2-3.2-0.3-4.8-0.5
		c-1-0.1-1.5-0.7-1.3-1.8c0.7-4.2,1.2-8.5,1.9-12.7c0.2-1.3-0.2-1.8-1.4-1.9c-4.8-0.7-9.7-1.4-14.5-2c-2.2-0.3-2.5-0.5-2.2-2.7
		c0.1-1.3,0.4-2.5,0.7-3.8c0.2-0.9,0.7-1.2,1.6-1.1c7.7,1.1,15.4,2.2,23.1,3.3c5.9,0.9,11.9,1.8,17.8,2.6
		C210,263.1,210.7,263.4,210.6,264.5z"/>
	<path fill="#FFFFFF" d="M486.9,503c-0.9-4-1.8-8-2.7-12.1c-1.4-6.3-2.7-12.6-4.1-18.9c-0.2-1,0-1.7,1.1-2.1
		c1.5-0.6,2.9-1.4,4.3-2.1c1-0.5,1.6-0.2,1.8,0.9c1.3,8.1,2.6,16.1,3.9,24.2c1,5.8,2.1,11.6,3.1,17.5c0.4,2.5,0.3,2.6-2,3.6
		c-0.8,0.3-1.7,0.7-2.4,1.2c-1.1,0.6-1.8,0.5-2.7-0.5c-9.2-10.8-18.5-21.5-27.8-32.2c-1.4-1.6-1.4-1.8,0.5-2.7
		c1.5-0.7,2.9-1.4,4.4-1.9c0.5-0.2,1.5,0.2,1.9,0.6c3.3,4.1,6.6,8.2,9.9,12.3c3.1,3.9,6.3,7.9,9.4,11.8c0.2,0.3,0.6,0.5,0.9,0.7
		C486.7,503.2,486.8,503.1,486.9,503z"/>
	<path fill="#FFFFFF" d="M569,412.9c-0.5-0.8-0.8-1.4-1.2-1.9c-3.3-4.2-6.6-8.5-9.9-12.7c-0.8-1-1-1.9-0.2-3
		c1.2-1.7,2.2-3.4,3.5-5.5c1.2,1.6,2.3,2.9,3.3,4.2c4.2,5.9,8.5,11.8,12.5,17.8c2,3,5,4.4,7.8,6.3c2.4,1.6,4.8,3,7.3,4.5
		c0.8,0.5,1,1.1,0.5,1.9c-0.8,1.3-1.7,2.6-2.5,3.9c-0.6,0.9-1.2,1-2.1,0.5c-2.6-1.6-5.4-2.9-7.8-4.8c-3.7-2.9-8-3.6-12.5-4.1
		c-7.1-0.7-14.1-1.5-21.1-2.4c-1.8-0.2-2-0.7-1-2.3c0.8-1.4,1.7-2.7,2.4-4.2c0.6-1.1,1.4-1.4,2.7-1.2c5.7,1,11.3,2,17,3
		C567.8,412.9,568.2,412.9,569,412.9z"/>
	<path fill="#FFFFFF" d="M587.8,333.9c-0.5,2.3-1,4.2-1.4,6.1c-0.1,0.4-0.3,0.8-0.4,1.2c-0.6,2.6-0.5,2.8,2.2,3.5
		c6.7,1.7,13.5,3.5,20.2,5.3c3.7,1,7.4,1.9,11.1,2.8c1.1,0.3,1.5,0.7,1.1,1.9c-0.5,1.4-0.8,2.9-1.1,4.4c-0.2,1.1-0.8,1.4-1.9,1.1
		c-5-1.3-10-2.6-15-3.9c-4.4-1.1-8.8-2.3-13.2-3.4c-1.6-0.4-3.1-0.8-4.6-1.3c-1-0.3-1.5-0.1-1.8,1c-0.6,2.4-1.2,4.8-1.8,7.2
		c-0.5,1.8-0.8,2.1-2.7,1.7c-1.4-0.3-2.7-0.7-4.1-1c-1-0.3-1.4-0.9-1.1-1.9c1.6-6.1,3.3-12.2,4.9-18.3c0.6-2.4,1.2-4.9,1.8-7.3
		c0.3-1.2,0.9-1.5,2-1.2c1.6,0.4,3.2,0.8,4.8,1.3C587.2,333.1,587.5,333.6,587.8,333.9z"/>
	<path fill="#FFFFFF" d="M501.5,150.1c-1.1-0.7-2-1.3-2.9-1.9c-3.2-2.1-3.3-2.2-1.2-5.3c4.6-6.8,9.2-13.5,13.8-20.2
		c1.3-1.9,2.7-3.9,4-5.8c0.7-0.9,0.4-1.5-0.4-2.1c-2.3-1.5-4.4-3.2-6.7-4.7c-1-0.7-0.9-1.3-0.4-2.1c0.9-1.3,1.8-2.6,2.6-3.9
		c0.6-0.9,1.3-1,2.2-0.4c5.9,4,11.7,7.9,17.6,11.9c1.5,1,3,2.1,4.5,3.1c0.8,0.5,0.9,1.1,0.4,1.9c-0.9,1.3-1.8,2.7-2.7,4
		c-0.7,1.1-1.4,1.1-2.4,0.4c-2-1.5-4.2-2.8-6.2-4.3c-1.1-0.8-1.7-0.7-2.5,0.4c-3.5,5.3-7.1,10.5-10.6,15.7
		c-2.6,3.9-5.2,7.7-7.9,11.6C502.5,149.1,502,149.6,501.5,150.1z"/>
	<path fill="#FFFFFF" d="M463,89.7c-2.1-0.6-3.8-1.1-5.6-1.6c-0.2-0.1-0.4-0.2-0.6-0.2c-3.7-0.8-3.9-1.1-4.8,2.8
		c-0.9,4.1-2.1,8.1-3.1,12.2c-1.5,5.8-3,11.5-4.4,17.3c-0.6,2.3-0.8,2.5-3,1.9c-1.2-0.3-2.5-0.7-3.7-1c-0.9-0.2-1.2-0.6-1-1.6
		c1.1-4.4,2.2-8.7,3.3-13.1c1.1-4.4,2.3-8.7,3.4-13.1c0.5-2.1,1-4.2,1.6-6.2c0.3-1.3,0.3-2.1-1.3-2.5c-2.4-0.5-4.7-1.2-7-1.8
		c-1.7-0.4-1.9-0.8-1.5-2.5c0.3-1.2,0.7-2.5,1.1-3.7c0.3-1.1,1-1.6,2.2-1.3c4.3,1.1,8.5,2.1,12.8,3.2c3.9,1,7.7,1.9,11.5,2.9
		c2.6,0.7,2.6,0.7,2,3.3c-0.3,1.3-0.5,2.6-1,3.9C463.9,89,463.3,89.3,463,89.7z"/>
	<path fill="#FFFFFF" d="M280.4,108.8c-0.9,0.5-1.6,0.8-2.3,1.2c-1.9,1.1-3.7,2.1-5.6,3.2c-0.9,0.5-1.6,0.4-2.2-0.5
		c-0.9-1.5-1.7-3-2.6-4.5c-0.7-1.3,0.4-1.7,1.2-2.1c3.3-1.8,6.6-3.6,9.9-5.4c4.4-2.4,8.8-4.9,13.2-7.3c0.4-0.2,1.4,0,1.6,0.4
		c1,1.6,2,3.2,2.8,4.9c0.2,0.3-0.5,1.3-1,1.6c-2.1,1.3-4.4,2.5-6.6,3.7c-1.1,0.6-1.4,1.3-0.7,2.4c3.3,5.9,6.6,11.9,10,17.8
		c2.1,3.8,4.2,7.6,6.3,11.4c0.6,1,0.4,1.6-0.6,2.2c-1.2,0.6-2.4,1.2-3.5,2c-1.3,0.8-2,0.7-2.8-0.7c-4.5-8.4-9.2-16.7-13.7-25.1
		c-0.7-1.3-1.4-2.6-2.2-3.9C281.3,109.6,280.8,109.2,280.4,108.8z"/>
	<path fill="#FFFFFF" d="M273.8,447.1c-0.3,0.5-0.5,1-0.8,1.4c-5.3,6.6-10.6,13.1-15.9,19.7c-1.5,1.9-3,3.8-4.6,5.6
		c-0.9,1.1-0.8,2,0.4,2.9c3.7,3,7.4,6.1,11.1,9c1.1,0.8,1.3,1.5,0.3,2.6c-0.9,1-1.8,2.1-2.6,3.2c-0.9,1.2-1.7,1.2-2.8,0.3
		c-3.7-3-7.5-6.1-11.3-9.1c-2-1.6-3.9-3.2-5.9-4.7c-1.2-0.9-1.1-1.7-0.2-2.8c3.4-4.2,6.9-8.4,10.3-12.6c5.2-6.4,10.4-12.7,15.5-19.1
		c0.7-0.9,1.5-1.2,2.5-0.4c1.1,0.9,2.3,1.8,3.3,2.8C273.4,446.3,273.5,446.7,273.8,447.1z"/>
	<path fill="#FFFFFF" d="M261.2,111.6c0.2,0.6,0.3,1.2,0.7,1.7c3.7,5.3,7.5,10.6,11.3,15.9c3.6,5.1,7.3,10.1,10.9,15.2
		c0.3,0.4,0.6,0.9,0.9,1.3c1.7,2.7,1.7,2.7-0.9,4.5c-4,2.9-3.3,2.9-6.1-1.1c-4.5-6.3-9.1-12.6-13.6-19c-3-4.2-6-8.4-8.9-12.6
		c-0.3-0.4-0.3-1.5,0-1.8c1.4-1.2,2.9-2.2,4.4-3.3c0.2-0.1,0.4-0.1,0.6-0.2C260.7,112.1,261,111.9,261.2,111.6z"/>
	<path fill="#FFFFFF" d="M198.7,232.6c-5.3,0.1-9.8-4.3-9.9-9.6c-0.1-5.7,4.3-10.2,10-10c6,0.2,9.3,4,9.6,9.6
		C208.7,228.1,204.3,232.8,198.7,232.6z"/>
	<path fill="#FFFFFF" d="M589.3,232.6c-5.5-0.1-9.9-4.5-9.8-10c0.1-5.4,4.5-9.7,10-9.6c5.3,0,9.6,4.6,9.6,9.9
		C599.2,228.3,594,233.2,589.3,232.6z"/>
	<path fill="#FFFFFF" d="M388.9,370.2c0-16.2,0-32.4,0-48.6c0-2.7-0.8-5.2-3.3-6.4c-2.6-1.2-5.4-1.2-7.7,0.8
		c-1.7,1.5-2.2,3.6-2.2,5.8c0,5.8,0,11.5,0,17.3c0,25.2,0,50.3,0.1,75.5c0,1.2,0,2.4,0,3.5c0,0.9-0.3,1.5-1.4,1.1
		c-3.4-1.2-6.8-2.4-10.2-3.5c-1.2-0.4-1.3-1.3-1.3-2.4c0-13.2,0-26.5,0-39.7c0-17.2,0-34.4,0-51.6c0-4.1-1.3-6.4-4.3-7.6
		c-3.5-1.4-7.7,0.4-8.7,4.1c-0.5,2.1-0.8,4.3-0.8,6.5c-0.1,27.9,0,55.8,0,83.7c0,2-0.2,2.3-2.1,1.7c-2.8-0.8-5.7-1.7-8.4-2.7
		c-0.6-0.2-1.1-1.4-1.2-2.2c-0.2-2.8-0.1-5.7-0.1-8.5c-0.1-24-0.1-48.1-0.2-72.1c0-2.3-0.1-4.5-0.3-6.8c-0.3-3.6-3.1-6-6.6-5.9
		c-3.5,0.1-6.5,3-6.6,6.4c-0.1,2.9,0,5.8,0,8.7c0,23.7,0,47.4,0,71.2c0,0.7-0.3,1.4-0.5,2c-0.7-0.2-1.4-0.4-2-0.7
		c-2.6-1.6-5.2-3.3-7.8-4.8c-1.6-0.9-2.1-2-2.1-3.7c0-20.9-0.1-41.8-0.1-62.8c0-5.9,0.2-11.7-0.2-17.6c-0.3-4.4-1.4-8.8-2.2-13.2
		c-0.6-3.2-1.5-6.4-2-9.6c-0.1-0.8,0.2-1.8,0.7-2.5c4.9-6.1,9.9-12.2,14.7-18.3c1-1.3,2.1-1.8,3.7-1.6c6.3,0.8,12.7,1.6,19,2.3
		c7,0.8,5.6,1.2,10.4-4c4.6-5,5.3-11.2,3.5-17.7c-1.3-4.9-2.2-9.8-0.3-14.7c1-2.6,3.2-3.9,6-4.1c1.4-0.1,2.8-0.6,4.2-0.8
		c3.4-0.4,6.2,1,8.7,3c4.9,4,8.1,9.3,11.1,14.7c2.1,3.8,4,7.6,5.8,11.5c1.2,2.7,2.2,5.5,3.3,8.2c0.2,0.4,0.4,0.9,0.7,1.2
		c0.8,1,1.6,0.8,2-0.3c0.5-1.8,1.1-3.6,1.1-5.5c-0.1-5.6-0.7-11.2-0.8-16.7c-0.1-4,0.3-8,1.7-11.7c0.5-1.2,1-2.4,1.5-3.5
		c2.2-4.8,6.7-4.7,10.7-2.6c5.8,3.1,11,6.9,15.3,11.8c3.5,4,6.7,8.3,8.8,13.2c1.2,2.9,2.3,5.8,3.7,8.6c2.3,4.7,7.9,7.6,13.1,7.2
		c4-0.3,8-0.6,12.1-0.9c1.3-0.1,2.1,0.4,2.9,1.5c4.1,6,8.3,11.9,12.6,17.7c1.4,1.9,1.5,3.6,0.9,5.7c-1.7,5.8-3.4,11.6-5,17.5
		c-0.3,1.1-0.2,2.3-0.2,3.5c-0.1,26.2-0.1,52.4-0.2,78.6c0,0.9,0,1.8,0,2.7c0,1.2-0.4,2.1-1.6,2.7c-3,1.6-5.9,3.3-8.8,5
		c-2,1.1-2.4,0.9-2.4-1.4c0-26.2-0.1-52.5-0.2-78.7c0-1.7-0.4-3.5-1-5.2c-1.1-2.8-3.4-3.9-6.6-3.5c-3,0.4-5.3,2.6-5.8,5.5
		c-0.2,1-0.2,2-0.2,3.1c0,28.2,0,56.5,0,84.7c0,1.7-0.4,2.7-2.1,3.2c-2.5,0.8-5,1.7-7.5,2.6c-1.4,0.5-1.7-0.3-1.7-1.5
		c0-3.5,0-7.1,0-10.6c0-25.1-0.1-50.1-0.1-75.2c0-1.4,0-2.8-0.2-4.2c-0.5-3.1-2.7-4.9-6-5c-3.3-0.1-6.4,1.9-6.8,4.8
		c-0.5,3.8-0.6,7.6-0.6,11.4c0,13.9,0.1,27.8,0.1,41.6c0,13.8,0,27.6,0.1,41.5c0,1.7-0.6,2.6-2.1,3c-2.3,0.6-4.5,1.4-6.8,2
		c-1.7,0.5-2,0.2-2-1.6c0-15.9-0.1-31.7-0.1-47.6c0-14.8,0-29.7-0.1-44.5c0-2.3,0.1-4.7-1.2-6.9c-1.3-2.2-4-3.4-6.6-3.1
		c-3.2,0.5-4.9,2.4-5.6,5.4c-0.2,1-0.3,2-0.3,3c0.1,32.1,0.2,64.2,0.3,96.3c0,2.2-0.1,2.4-2.4,2.4c-2.9,0-5.7,0-8.6,0
		c-1.5,0-2.1-0.6-2.1-2.1C388.9,403,388.9,386.6,388.9,370.2C388.9,370.2,388.9,370.2,388.9,370.2z"/>
	<path fill="#FFFFFF" d="M396.6,232.3c-0.1,3-0.2,6-0.4,8.9c0,0.5-0.4,0.9-0.6,1.3c-0.4-0.3-0.9-0.5-1.2-0.9
		c-4.4-6.3-8.8-12.6-13.2-18.9c-2.1-3.1-4.2-6.2-6.4-9.3c-1.1-1.6-2.6-3-3.5-4.8c-3.1-6.2-2-12.3,1-18.2c1-1.9,2.1-3.7,3.2-5.6
		c2.3-3.9,5.9-3.4,8-1.3c2.9,2.8,5.4,1.6,8.2,0.2c1-0.5,1.9-1.2,2.8-1.9c1.1-0.8,2.2-0.8,3.3,0c0.3,0.3,0.7,0.5,1.1,0.7
		c4.5,3.5,7.9,2.8,11.8,0c2.5-1.9,5.2-2.6,8.2-2.6c2.3,0,4.5,0.2,6.8,0.2c3.6,0,5.2-2.2,3.8-5.5c-0.6-1.3-1.6-2.5-2.5-3.7
		c-0.5-0.7-1.2-1.3-1.8-2.1c-3.4-4.3-1.6-7.8,2.7-10c1.1-0.6,2.3-0.8,3.5-1.3c2-0.8,4-1.7,6-2.6c3.1-1.3,6.2-2,9.6-1.4
		c2.8,0.5,5.7,0.7,8.4,1.4c3.4,0.9,6.8,2.1,10.1,3.2c1.9,0.7,3.8,1.6,5.7,2.2c4.7,1.4,8.4,4.3,12.1,7.2c7.6,6,14.2,13,20.6,20.1
		c5.5,6.2,10.3,13.1,15.3,19.7c4.7,6.2,9.4,12.6,14,18.9c4.3,5.8,8.6,11.7,12.8,17.5c1,1.3,1.6,2.9,2.3,4.4c0.2,0.4,0.2,1.2-0.1,1.4
		c-0.3,0.3-1,0.3-1.4,0.2c-2.4-0.8-4.4-2.3-6.3-4.1c-2.1-2-4.5-3.8-6.8-5.6c-0.5-0.4-1.4-0.3-2.1-0.4c0,0.7-0.3,1.6,0,2.2
		c2,3.7,4.1,7.4,6.3,11c3.2,5.4,6.7,10.6,7.3,17.2c0.2,2.6,0,5.1-1.2,7.5c-0.6,1.1-1.3,1.3-2.2,0.5c-0.6-0.6-1-1.4-1.5-2.1
		c-2.1-2.9-4.1-5.9-6.2-8.8c-0.3-0.4-0.8-0.8-1.2-1c-0.3-0.2-0.9-0.3-1.1-0.2c-0.3,0.2-0.4,0.7-0.4,1.1c0.1,1.1,0.4,2.1,0.5,3.2
		c0.1,1.3-0.5,2.6-1.7,2.8c-0.7,0.1-2-0.6-2.5-1.3c-1.7-2.4-3.3-4.9-4.9-7.4c-4.7-7.3-9.3-14.5-14-21.8
		c-5.7-8.9-11.3-17.7-16.9-26.6c-6.3-9.8-12.5-19.7-18.8-29.5c-3.9-6.2-7.9-12.3-11.8-18.4c-0.4-0.6-0.8-1.3-1.1-2
		c-1-3.3-3.4-5-6.7-5.5c-2.8-0.5-5.7-0.1-8.2,0.9c-1.2,0.5-2.3,2-2.8,3.3c-1.1,2.7-1.5,5.7-2.6,8.4c-1.5,3.5-3.4,6.8-5.2,10.1
		c-3.3,6.2-8.4,10.8-13.7,15.3c-1.5,1.3-3.3,2.4-5,3.5c-2.2,1.4-3.1,3.8-1.9,6.1c1.5,2.8,3.2,5.4,5,8c1.4,2,3.5,3.1,5.7,4
		c0.4,0.2,1,0.2,1.4,0.1c1.6-0.7,2.7,0,3.5,1.2c1.2,1.9,2.2,3.9,3.4,5.8c0.9,1.5,1.7,3.1,2.9,4.4c2.5,2.7,5.8,2.9,8.9,0.7
		c9.6-6.7,19.2-13.4,28.8-20.1c0.8-0.5,1.5-1.2,2.2-1.9c2.5-3,5.4-2.7,7.3,0.7c1.1,2,2.2,4.1,3.4,6c3.4,5.5,6.8,11,10.2,16.4
		c1.9,3.1,3.8,6.1,5.6,9.2c0.9,1.5,0.7,2.8-1,3.3c-1.5,0.5-3.2,0.9-4.7,0.7c-10.5-1.8-20.9-1.4-31.3,0.1c-5.1,0.7-10.2,1.7-15.2,2.9
		c-2.5,0.6-4.1-0.3-5.5-2c-1.4-1.7-2.7-3.6-3.9-5.5c-3.3-5-7-9.7-11.2-14.1c-3.5-3.6-7.5-6.7-12.1-8.6c-5.4-2.2-11-2.8-16.3,0.3
		c-3.7,2.2-4.5,6.1-5,10c-0.1,0.6,0,1.3,0,1.9C396.5,232.2,396.5,232.3,396.6,232.3z"/>
	<path fill="#FFFFFF" d="M242.9,264.4c-0.6-0.2-1.3-0.4-1.9-0.5c0.2-0.6,0.3-1.2,0.6-1.8c1.6-3.3,3.2-6.7,4.8-10
		c0.3-0.6,0.3-1.4,0.3-2c0.1-4.7,2.2-7.4,6.5-9.4c2.4-1.1,4.4-3.1,6.3-4.9c1.8-1.6,3.4-3.5,5-5.2c0.7-0.8,1.4-0.9,2.5-0.6
		c5.3,1.6,8.3,0.4,11.6-4c2.1-2.9,4.5-5.6,6.9-8.2c2-2.1,2.9-2.2,5.3-0.8c6.9,4.1,14.3,7.2,21.8,9.9c6.1,2.2,12.2,4.4,18.4,6.2
		c6.5,1.9,13.2,3.3,19.9,4.8c1.3,0.3,1.7,0.9,1.9,2.1c0.7,3.6,1.5,7.2,2.4,10.8c0.4,1.6,0,2.8-1.6,3.3c-0.9,0.3-1.9,0.4-2.8,0.3
		c-13.3-1-26.6-2.1-39.9-3.2c-5.3-0.4-10.5-0.7-15.8-1.1c-1.4-0.1-2.1,0.5-3,1.5c-3.1,3.9-6.4,7.6-11,9.7c-2.2,1.1-4.6,1.6-7.2,0.8
		c-2-0.7-3.4,0-4,1.9c-1.4,4.4-5.1,6.3-8.7,8.3c-1.5,0.8-3.1,1.6-5,1.3c-0.6-0.1-1.6,1-2,1.8c-0.5,1-0.7,2.2-0.7,3.3
		c-0.1,2.6-1.2,4.3-3.6,5.4c-3.7,1.6-7.6,1.7-11.6,1.4c-1.2-0.1-1.2-0.8-0.7-1.7c2.2-3.5,4.4-7,6.5-10.5c0.8-1.2,1.5-2.5,2.2-3.8
		C248,266,246.8,264,242.9,264.4z"/>
	<path fill="#FFFFFF" d="M357.8,425.1c6,0.2,11.6,1.8,16.7,4.6c5.7,3.1,11.6,6.2,16.8,10.1c3.7,2.8,6.7,2.4,10.3,0.5
		c5.9-3,10.6-7.5,15.7-11.5c0.4-0.3,0.6-0.8,0.9-1.1c1.8-2.2,4.4-2.9,7-1.8c0.7,0.3,1.4,0.6,2.1,0.9c3.1,1.4,7.2,0.2,9-2.7
		c2-3.2,5.1-3.6,7.8-1c0.5,0.5,1.1,1.1,1.6,1.6c1.9,1.9,4.5,2.4,6.9,1.1c3.3-1.7,5.9-1,8.1,2c0.6,0.8,1.3,1.6,1.7,2.5
		c0.7,1.4,1.7,1.8,3.1,1.5c2.1-0.5,4.2-0.9,6.3-1.4c1.2-0.3,1.3-1.3,0.8-2.2c-0.4-0.6-1-1.2-1.6-1.6c-1.5-1.1-2-3.3-0.8-4.7
		c1-1.2,2.2-2.3,3.5-3.3c1.2-0.9,2.5-0.4,3.3,1.4c0.9,1.9,2.2,2.8,4.3,2.6c1.3-0.1,1.9,0.7,2.2,1.7c0.8,3.3-0.1,6.3-1.9,9
		c-0.3,0.4-1,0.6-1.5,0.8c-3,1-5.5,0.1-7.2-2.5c-0.6-1-1.1-1.3-2-0.2c-2.2,2.8-4.5,5.6-6.9,8.2c-1.7,1.9-3.5,3.7-6.4,3.5
		c-1.1-0.1-1.7,0.5-1.8,1.6c-0.1,0.7-0.1,1.5-0.3,2.2c-0.6,1.9-2.2,2.7-4,1.7c-1.2-0.7-2.3-1.5-3.5-2.3c-2.1-1.4-2.8-1.3-4.6,0.5
		c-1.1,1.1-2.2,2.1-3.4,3c-0.5,0.4-1.2,0.6-1.9,0.7c-2.4,0.4-4.1-0.6-5.5-2.4c-0.7-0.9-1.4-1.7-2.3-2.5c-1.5-1.4-3.5-1.2-4.7,0.4
		c-1.5,1.9-2.2,2.1-4.3,0.8c-1.3-0.8-2.6-1.1-4.2-1.3c-1.7-0.2-3.3-1.2-5-1.7c-1.6-0.5-3.3-0.8-5-0.9c-0.6,0-1.6,0.6-1.8,1.2
		c-0.2,0.5,0.3,1.4,0.7,1.9c1.8,2.1,3.8,4.1,5.6,6.2c1.3,1.5,2.2,3.3,3.3,4.9c0.6,0.9,0.3,1.4-0.6,1.9c-2.5,1.4-3,1.2-4.3-1.2
		c-1.4-2.6-2.7-5.3-4.7-7.4c-1.9-2-4.5-3.2-6.9-4.6c-0.5-0.3-1.3-0.2-1.9,0c-5.3,1.7-10.3,4.1-13.9,8.3c-1.8,2.1-3.1,4.8-4.4,7.3
		c-0.7,1.3-1.5,1.5-2.7,1.1c-1.6-0.5-2.1-1.3-1.2-2.7c1.4-2.3,3-4.4,4.7-6.5c2.5-3.3,6-5.5,9.4-7.7c1.8-1.2,1.8-2.1-0.2-2.7
		c-3.8-1-7.7-2-11.6-2.3c-6.5-0.6-12.6-2-18.2-5.3c-3-1.8-5.6-4.2-7.5-7.1c-0.6-0.9-0.5-1.6,0.5-1.9
		C353.4,426,355.6,425.6,357.8,425.1z"/>
	<path fill="#FFFFFF" d="M361.1,185.4c2-0.3,4.1-0.6,6.1-1.1c1-0.2,1.4,0.2,1.1,1c-0.4,1.4-0.9,2.7-1.4,4.1
		c-0.3,0.8-0.6,1.6-0.7,2.5c-0.4,3.5-3.9,5.1-6.8,3c-1.3-0.9-2.6-1.9-3.9-2.9c-3.9-2.9-7.8-5.8-11.6-8.7c-2.3-1.7-4.5-3.5-6.7-5.3
		c-1.3-1.1-1.4-2.6-0.4-4.1c0.3-0.5,0.7-0.9,1.2-1.3c2.6-2.5,3.5-6,2.2-9.5c-0.8-2.2-3.6-3.2-6.2-2.9c-5,0.6-8.5,3.7-12.1,6.7
		c-9.2,7.6-17.6,16.1-25.1,25.4c-6.9,8.5-12.7,17.7-17.9,27.3c-0.9,1.7-2.1,3.4-3.5,4.8c-2.2,2.1-5.1,2-7.4,0c-1.1-1-1.8-1-2.7,0.2
		c-1.8,2.2-3.5,4.5-5.7,6.3c-2.1,1.8-4.6,3.2-7.1,4.3c-1.2,0.5-2.8,0.1-4.2-0.1c-1.3-0.2-1.5-0.9-0.6-1.9c4.3-4.9,8.4-9.9,12.8-14.7
		c9.3-10.3,18.6-20.6,28.2-30.6c7.6-7.9,15.5-15.5,23.5-22.9c3.4-3.2,7.1-6.2,11.2-8.3c5.2-2.8,11-3.9,17-2.8c2.3,0.4,4.7,0.8,7,1.2
		c3.7,0.7,6.8,4.9,5.9,8.5c-0.5,1.9-1.8,3.7-2.9,5.5c-0.8,1.2-2,2.2-2.9,3.4c-1.2,1.6-1.1,3,0.3,4.5c0.4,0.5,0.9,1,1.2,1.5
		C352.6,183.3,355.1,184.7,361.1,185.4z"/>
	<path fill="#FFFFFF" d="M516.2,322.4c-0.5,1.2-0.9,2.5-1.4,3.7c-0.5,1.3-1.2,2.5-1.6,3.8c-0.6,2.2,0.6,3.5,2.8,3.8
		c1.1,0.1,2.2,0.4,3.2,0.8c2.8,1.2,3.1,3.1,0.9,5.2c-1.8,1.7-2.6,3.9-2.8,6.3c-0.1,1.8,1.4,3.5,3,4.3c1.7,0.8,3.4,1.8,4.8,3.1
		c2.3,2.2,1.7,5.3-1.1,7.2c-1.9,1.3-3.9,2.7-5.7,4.1c-1.7,1.3-2.5,3.1-3,5c-0.3,1.5-1.1,1.8-2.3,1c-4-2.4-8.1-4.7-11.9-7.4
		c-1.7-1.2-3.6-1-5.3-1.7c-2-0.9-2.6-2-1.5-4c0.7-1.2,1.7-2.3,2.5-3.4c0.6-0.8,1.4-1.8,1.3-2.7c-0.1-0.7-1.3-1.3-2.2-1.8
		c-0.8-0.4-1.9-0.5-2.8-0.8c-3.4-1.5-4.7-4.9-2.9-8.3c1.1-2.2,0.8-4.4,0.2-6.6c-0.1-0.5-0.6-1.2-1.1-1.3c-3-0.9-3.5-4.4-1.6-7.1
		c0.7-0.9,1.5-1.6,2.3-2.4c1.5-1.5,2.3-3.2,2.7-5.3c0.3-1.9,1-3.7,1.8-5.4c0.7-1.5,2.7-1.9,4-1c1,0.6,1.9,1.5,2.5,2.4
		c2.1,3.1,4.4,4.2,8,3.6c0.5-0.1,1-0.1,1.4-0.2C514.1,317.1,516,318.9,516.2,322.4z"/>
	<path fill="#FFFFFF" d="M373.9,223.9c-0.8-0.1-1.3-0.1-1.7-0.2c-2.9-0.5-5.8-1.3-8.7-1.6c-4.2-0.5-7.2,2-9.4,5.1
		c-1,1.4-1.5,3.2-0.8,5.1c0.2,0.5,0.2,1.1,0.3,2c-1.9-0.5-3.6-0.8-5.2-1.3c-7.1-2.2-14.2-4.4-21.3-6.8c-6.7-2.2-13.3-4.5-19.9-7
		c-4.6-1.8-9.1-4.1-13.6-6.3c-2-1-2.2-1.9-0.8-3.7c4.5-5.8,9-11.5,13.5-17.2c1.3-1.6,1.7-1.6,3.2-0.2c7,6.4,14.9,11.4,23.2,15.9
		c4.9,2.7,10.2,4.8,15.4,6.8c6.1,2.4,12.5,3.6,19,3.8c2.3,0.1,3.9,0.9,5,2.8C372.5,222,373.1,222.7,373.9,223.9z"/>
	<path fill="#FFFFFF" d="M483.5,399.1c0-0.1,0-0.6-0.1-1c-0.6-4.2-0.1-5.1,3.7-6.9c0.2-0.1,0.5-0.2,0.7-0.3c3.1-1.5,3.7-3.2,2.1-6.2
		c-1.7-3.4-0.7-5.6,3-6.6c2.3-0.6,2.9-1.4,2.8-3.7c-0.1-2.4,0.9-4.3,3-5.5c1.1-0.7,1.8-0.3,2.5,0.8c1.8,2.8,3.6,5.6,5.7,8.1
		c0.9,1.1,2.6,1.9,4.1,2.3c4.7,1.1,6.5,5.4,3.7,9.4c-0.2,0.3-0.4,0.5-0.6,0.8c-2.1,2.8-2.1,3.3-0.1,6.3c0.6,1,1.2,2,1.7,3.1
		c1.1,2.7-0.1,4.4-3,4.6c-1.4,0.1-2.8,0.2-4.1,0.7c-2.5,0.9-3.1,2.6-2.3,5.2c0.2,0.6,0.4,1.2,0.5,1.9c0.9,4.5-1.1,6.3-5.5,7.1
		c-1.9,0.4-3.9,0.2-5.7,0.8c-2.2,0.7-4.3,1.8-6.4,2.9c-1,0.6-1.4,0.8-2.1-0.4c-2-3.6-3.9-7.2-7.1-9.9c-3.1-2.6-2.8-6,0.5-8.4
		C483,402.4,483.5,401.5,483.5,399.1z"/>
	<path fill="#FFFFFF" d="M411.3,163.5c0,3.8,0,7.6,0,11.4c0,2.1-1,3.8-2.4,5.3c-1.5,1.6-3.3,1.7-5.1,0.5c-1.7-1.2-3.3-2.5-5.1-3.6
		c-1.9-1.1-3.5-0.8-5.1,0.7c-3.3,3-9,2.4-11.5-1.3c-0.2-0.3,0-1.2,0.3-1.7c1-1.7,2.1-3.3,3.1-5.1c1.3-2.4,1-3.3-0.8-5.4
		c-1.9-2.3-4.2-3.2-7.1-2.8c-0.5,0.1-1.1,0.1-1.6-0.1c-2.6-0.6-4.8,0-7,1.5c-1.6,1.1-2.3,0.7-2.5-1.2c-0.5-4,0.4-7.5,4-9.7
		c2.3-1.4,4.9-2.6,7.7-2.4c1.7,0.1,2.7-0.4,3.2-2.2c0.8-2.9,3.1-4.3,5.8-4.4c5.6-0.2,11.3-0.2,16.9-0.1c3.2,0.1,6.7,3.6,7.1,7.2
		c0.3,3.7,0.2,7.5,0.3,11.3C411.4,162.2,411.4,162.9,411.3,163.5C411.3,163.5,411.3,163.5,411.3,163.5z"/>
	<path fill="#FFFFFF" d="M535.3,354.1c-1.5-1.8-2.6-3.3-3.9-4.8c-1.2-1.3-2.5-2.6-3.9-3.8c-2-1.8-3.2-4.3-1.4-6.5
		c1.9-2.5,1.3-4.8-0.1-7.2c-0.5-0.8-1.1-1.6-1.7-2.3c-2.6-3.4-2.4-7.2,0.7-10.1c1.6-1.5,2.4-2.9,1.7-5c-0.2-0.7-0.1-1.6-0.1-2.4
		c0.1-2.4,1.6-3.9,4.1-4.2c1.8-0.2,3.6-0.6,5.3-1.2c1.5-0.5,2-1.7,1.4-3.3c-0.2-0.5-0.1-1.2,0.2-1.6c0.9-1.2,1.9-2.5,3.1-3.5
		c1.3-1.1,3-0.8,4.2,0.5c1.6,1.7,2.6,3.6,3.2,5.9c0.4,1.2,1.1,2.5,2,3.3c2.9,2.7,4.4,6.6,0.5,9.8c-1.5,1.2-1.5,2.9-0.5,4.7
		c0.8,1.4,1.6,2.8,2.2,4.3c1.2,2.8,0.1,4.9-2.8,5.5c-2.2,0.5-4.3,1.2-4.6,3.8c-0.2,1.3,0.4,2.6,0.7,4c0.3,1.2,0.9,2.3,0.9,3.5
		c0.1,1.9-1.1,3.1-2.6,3.9C540.5,348.9,537.3,350.6,535.3,354.1z"/>
	<path fill="#FFFFFF" d="M365.4,213.3c-3.9-1-8-1.7-11.8-3.1c-5.1-1.8-10.2-3.8-14.9-6.4c-7-3.9-13.8-8.3-20.6-12.5
		c-1.9-1.2-3.7-2.6-5.4-4c-1.6-1.3-1.6-2.9-0.2-4.3c4.4-4.4,8.8-8.8,13.3-13.1c1.8-1.7,4.1-2.1,6.5-1.7c1.2,0.2,1.8,1.3,1.5,2.3
		c-0.5,1.8-1.1,3.6-2.1,5.1c-2.1,3.1-2.1,4.8,0.8,7.1c4.1,3.3,8.1,6.7,12.5,9.6c4,2.7,8.3,4.9,12.4,7.3c0.4,0.3,1,0.4,1.5,0.4
		c4,0.3,5.9,2.9,7.3,6.2c0.6,1.5,1,3.2,1.4,4.8c0.5,1.8,0.3,2-1.5,2c-0.2,0-0.4,0-0.6,0C365.5,213.1,365.4,213.2,365.4,213.3z"/>
	<path fill="#FFFFFF" d="M475.7,201.7c-0.6,1-1,2.3-1.8,3c-4.2,3.6-8.6,7.1-13,10.6c-4.1,3.3-8.2,6.7-12.5,9.9
		c-1.7,1.3-3.7,2.2-5.6,2.9c-0.8,0.3-2.2,0-2.8-0.6c-2.1-2.4-4.7-4.4-6-7.5c-1-2.4-1-4,0.9-5.8c2.9-2.7,5.8-5.3,8.7-7.9
		c6.5-5.9,13.1-11.8,19.6-17.7c0.5-0.4,0.8-1,1-1.6c0.9-2,2.1-2.3,3.5-0.6c1.4,1.7,2.4,3.6,3.5,5.6c1.2,2.1,2.3,4.3,3.3,6.4
		C475,199.3,475.2,200.3,475.7,201.7z"/>
	<path fill="#FFFFFF" d="M519.6,312.7c-2.5-1.9-5.1-2.1-7.8-2c-2.3,0.1-4.2-1-5.8-2.4c-1.4-1.2-1.7-3.6-0.5-5.3
		c2.3-3.3,1.2-5.8-3.2-7.5c-1.4-0.5-2.6-1.6-3.7-2.7c-1-1.1-0.8-2.4,0.5-3.4c0.8-0.6,1.7-1.2,2.4-1.9c2-2,1.9-4.4,1.5-7.1
		c-0.3-1.9-0.2-3.9,0-5.9c0.3-2.7,2.4-4,5.4-2.1c1.8,1.1,3.6,2.5,4.3,4.8c0.4,1.3,1.6,1.9,3,1.6c1.6-0.4,3.1-0.9,4.6-1.5
		c2.6-1,4.6,0,5.1,2.8c0.2,1,0.1,2.1,0,3.2c-0.2,3.1,1.2,5,4.2,5.6c0.7,0.2,1.4,0.4,2.1,0.7c2.1,0.8,2.9,2.5,1.5,4.3
		c-2,2.5-4.2,5-6.8,6.7c-3,2-4.5,4.8-5.6,7.9C520.4,309.9,520.1,311.2,519.6,312.7z"/>
	<path fill="#FFFFFF" d="M462.8,179c-0.3,2-0.8,3.6-2.3,4.9c-7.4,6.9-14.7,13.8-22.1,20.7c-3,2.8-5.8,5.7-8.9,8.4
		c-3.2,2.8-3.3,3.3-6.6-0.2c-1.3-1.4-2.3-3.1-3.3-4.7c-0.8-1.2-0.3-2.1,0.8-3c4.2-3.8,8.5-7.6,12.4-11.7c4.6-4.9,8.7-10.2,11.3-16.5
		c0.7-1.6,1-3.3,1.6-4.9c0.6-1.5,1-3.2,1.9-4.5c1.5-2.3,4.2-2.7,6.5-1.2c2,1.3,3.5,2.9,4.5,5.1c0.7,1.4,1.7,2.7,2.5,4.1
		C461.8,176.6,462.2,177.8,462.8,179z"/>
	<path fill="#FFFFFF" d="M246.9,365.6c1.2,0.8,2.5,1.6,3.7,2.5c1.6,1.2,3.4,1.6,5.4,1.9c2.2,0.3,4.4,1.2,6.6,2
		c7.1,2.6,13.4,6.4,18.1,12.4c2.5,3.2,4.1,6.7,4.4,10.7c0.1,1.6-0.3,2.1-1.8,1.8c-3.5-0.7-7-1.6-10.5-2.4c-1.9-0.4-3.8-0.9-5.6-1.4
		c-0.9-0.2-1.8-0.4-2.5-0.9c-6.2-4.5-11.5-9.9-14.8-16.9c-1.2-2.5-2.1-5.2-3.1-7.8c-0.2-0.5-0.2-1.1-0.2-1.6
		C246.6,365.8,246.8,365.7,246.9,365.6z"/>
	<path fill="#FFFFFF" d="M271.8,338c-0.2-2.7-0.5-5-0.5-7.3c0.1-2.9,0.4-5.9,0.7-8.8c0.4-4.6,1.6-8.9,5.2-12.1
		c2.1-1.8,4.5-3.3,6.7-5c3.5-2.7,6.5-5.9,8.4-10c0.1-0.1,0.2-0.2,0.5-0.5c0.3,1,0.6,1.8,0.8,2.6c1.1,4.2,1.7,8.6,1,12.9
		c-1,6.4-3.9,11.5-9.5,15.2c-4.7,3.2-8.7,7.1-11.9,11.9c-0.1,0.2-0.3,0.3-0.4,0.5C272.7,337.5,272.5,337.6,271.8,338z"/>
	<path fill="#FFFFFF" d="M262.6,321c0-0.6,0-1.2,0.1-1.8c0.8-4.4,0.1-8.4-2.1-12.3c-2.1-3.8-1.1-7.3,0.9-10.8
		c1.5-2.6,3.1-5.1,4.4-7.8c1.9-3.9,5.2-6.2,8.6-8.4c1-0.6,2.1-1.2,3.2-1.6c0.6-0.2,1.4-0.3,1.9-0.1c0.3,0.2,0.3,1.2,0.2,1.8
		c-0.4,2.7-1.1,5.4-1.4,8.1c-0.2,1.8,0.4,3.7,0.3,5.6c0,1.4-0.3,2.9-0.7,4.2c-2.1,6.2-5.6,11.6-9.5,16.7c-1.3,1.8-2.7,3.5-4,5.2
		c-0.4,0.6-0.7,1.2-1.1,1.8C263.2,321.4,262.9,321.2,262.6,321z"/>
	<path fill="#FFFFFF" d="M260.8,339.1c-2.1-1.5-4.3-2.9-6.4-4.5c-4.3-3.4-8.1-7.4-11-12.1c-1.7-2.8-2.7-6-2.6-9.4
		c0.1-1.4,0.8-2.7,1.4-4c1.7-4,3.5-8,5.3-11.9c0.2-0.4,0.5-0.9,0.8-0.9c0.4,0,0.9,0.4,1.1,0.7c2.6,4.8,5.2,9.6,7.8,14.4
		c0.3,0.6,0.5,1.3,0.4,2c-0.3,7,0.4,13.9,2.2,20.7c0.4,1.5,1,2.9,1.4,4.4C261.1,338.8,261,338.9,260.8,339.1z"/>
	<path fill="#FFFFFF" d="M269.5,366.3c-1.9-1.1-3.8-2.3-5.8-3.3c-1.1-0.6-2.3-1.2-3.5-1.5c-6.4-1.3-11.1-5.1-14.8-10.3
		c-1.9-2.6-3.5-5.4-4.7-8.4c-1.6-4-2.5-8.3-2.1-13.1c0.7,0.5,1.2,0.7,1.4,1.1c2.9,4.1,7.4,5.9,11.6,8c2.9,1.5,5.4,3.6,8,5.6
		c3.5,2.7,4.9,6.6,6.3,10.6c1,2.9,2.2,5.8,3.3,8.7c0.3,0.7,0.4,1.4,0.7,2.1C269.8,366.1,269.7,366.2,269.5,366.3z"/>
	<path fill="#FFFFFF" d="M276.6,364.8c0-0.9-0.1-1.4,0-1.9c0.7-3,0.8-6,0.1-9.1c-0.2-1-0.1-2.1,0-3.2c0.4-4,0.6-8.1,3.1-11.6
		c1.8-2.7,4.2-4.5,6.7-6.4c2.6-2,5.2-4.1,7.7-6.3c0.7-0.6,1.2-1.5,1.8-2.2c0.2-0.2,0.5-0.4,0.8-0.6c0.2,0.3,0.5,0.6,0.5,0.9
		c0.4,5-0.3,9.9-0.9,14.9c-0.5,4.4-3,7.3-6,10.2c-3.4,3.3-6.3,7-9.5,10.5C279.6,361.6,278.3,363.1,276.6,364.8z"/>
	<path fill="#FFFFFF" d="M317.5,411.2c7.5,0.3,14.2,2.8,20.1,7.2c4.3,3.2,7.2,7.7,9.5,12.6c0.6,1.3,1.3,2.6,1.8,3.9
		c0.5,1.3,0.1,1.7-1.2,1.6c-6.1-0.5-12-1.9-17.5-4.5c-0.6-0.3-1.2-0.9-1.6-1.5c-3.5-6-7.4-11.6-11.9-16.7c-0.1-0.1-0.1-0.2-0.2-0.3
		c-0.3-0.6-0.6-1.2-0.8-1.8C316.2,411.5,316.8,411.4,317.5,411.2z"/>
	<path fill="#FFFFFF" d="M300,366.6c0.1,4.5-0.6,8.7-2.7,12.8c-1.2,2.3-1.3,5.1-2.4,7.5c-1,2.3-2.4,4.4-3.8,6.5
		c-0.3,0.5-1.2,0.6-1.8,0.8c-0.2-0.6-0.5-1.2-0.5-1.8c0-3.5-0.1-7-1.4-10.3c-0.5-1.2-1.2-2.4-1.6-3.7c-0.4-1.2-1-2.5-0.9-3.7
		c0.5-6,1.9-11.7,5.2-16.7c1-1.6,2.7-2.8,4.2-4.2c1.1-1,1.8-0.3,2.2,0.7c1,2.5,2.2,4.9,3,7.4C300,363.4,299.9,365,300,366.6z"/>
	<path fill="#FFFFFF" d="M299.3,432c0.8-0.2,1.5-0.6,2.3-0.6c3.1-0.2,6.1-0.3,9.2-0.5c1-0.1,2-0.2,3-0.5c2.1-0.6,3.8,0.4,5.6,1.1
		c2.4,1,4.7,2.3,7.1,3.3c5.3,2.3,10.6,4.4,16.4,4.8c0.4,0,0.7,0.2,1.6,0.3c-0.9,0.5-1.4,0.9-2,1c-4.9,1.3-9.8,2.8-14.8,3.9
		c-2.3,0.5-4.8,0.7-7.1,0.6c-4-0.2-7.6-1.7-11-3.7c-2-1.1-3.7-2.4-5.1-4.3C303.1,435.8,301.3,434.1,299.3,432z"/>
	<path fill="#FFFFFF" d="M302.5,425.3c-1.9-0.3-3.7-0.6-5.6-1c-6.6-1.3-12.7-3.9-18.5-7.2c-1.7-0.9-3.3-2.1-4.8-3.3
		c-0.7-0.6-1.3-1.5-1.5-2.4c-0.8-2.9-1.8-5.7-3.7-8.2c-0.1-0.2-0.1-0.4-0.4-1c1.7,0.4,3,0.8,4.3,1.1c4.1,0.9,8.3,1.9,12.5,2.5
		c3.1,0.5,5.5,1.7,7.3,4.2c2.1,3,4.3,5.9,6.5,8.8c1.1,1.5,2.3,2.8,3.4,4.3c0.4,0.5,0.6,1,0.9,1.5C302.7,425,302.6,425.2,302.5,425.3
		z"/>
	<path fill="#FFFFFF" d="M372.1,443.7c-0.7,0.7-1.5,1.3-2.2,2c-1.7,1.7-3.3,3.4-5,5c-0.5,0.5-1.2,0.9-1.9,1
		c-5.3,0.8-10.6,1.9-15.9,2.3c-4.4,0.4-8.8,0.2-13.2,0c-2.2-0.1-2.4-1-0.9-2.8c2-2.3,4.3-4,7.1-5.2c2.2-1,4.5-2,6.9-2.6
		c3.6-0.9,7.3-1.4,11.1-0.8c3.9,0.6,7.9,0.3,11.9,0.4c0.7,0,1.3,0.1,2,0.2C372,443.4,372.1,443.6,372.1,443.7z"/>
	<path fill="#FFFFFF" d="M298.3,400.3c0.3-4.3,0.4-7.4,0.7-10.4c0.1-0.8,0.3-1.6,0.7-2.3c0.3-0.5,0.8-1.2,1.3-1.2
		c0.4,0,1,0.7,1.3,1.2c1.8,3.3,3.5,6.6,5.3,9.9c1.1,2.1,2.8,4.1,3.5,6.3c1.8,5.7,1.3,11.6-0.2,17.3c-0.1,0.4-0.4,0.8-0.7,0.9
		c-0.3,0.1-0.9-0.2-1.1-0.5c-1.5-2.3-3.8-3.7-6-5.2c-2-1.3-2.8-3.6-3.2-5.8C299,406.7,298.7,402.9,298.3,400.3z"/>
	<path fill="#FFFFFF" d="M536.9,370.2c-0.8,2.3-1.6,4.3-2.3,6.4c-0.5,1.5-0.9,3-1,4.5c-0.2,3.4-1.6,4.7-4.9,3.8
		c-2.6-0.8-5.2-2-7.6-3.3c-1.8-1-2.8-4.1-2.3-6.1c0.3-1.2,1.3-1.7,2.6-1.4c2.1,0.5,2.1,0.5,2.7-1.6c0.4-1.5,0.8-3.1,1.4-4.6
		c0.7-1.9,2.2-3.1,4.3-2.7c1.8,0.3,3.7,0.9,5.2,1.8C535.9,367.4,536.3,369,536.9,370.2z"/>
</g>
</svg>
