<?xml version="1.0" encoding="utf-8"?>
<!-- Generator: Adobe Illustrator 17.1.0, SVG Export Plug-In . SVG Version: 6.00 Build 0)  -->
<!DOCTYPE svg PUBLIC "-//W3C//DTD SVG 1.1//EN" "http://www.w3.org/Graphics/SVG/1.1/DTD/svg11.dtd">
<svg version="1.1" id="Layer_6" xmlns="http://www.w3.org/2000/svg" xmlns:xlink="http://www.w3.org/1999/xlink" x="0px" y="0px"
	 viewBox="0 0 792 612" enable-background="new 0 0 792 612" xml:space="preserve">
<polyline id="headInflat10" fill="none" stroke="#03EDED" stroke-width="3" stroke-miterlimit="10" points="4.7,49.7 21.3,54.3 
	32,55.7 61,50.3 76,35.3 89.7,26 102,30.7 116,39 131,63.3 143.7,108.7 158,130.7 172,134.7 185.7,132.7 201,146.7 211.3,148 
	229,157 240,159 253.3,170 267.3,160.7 281.7,160.7 295.3,137.7 309.3,99.7 323.3,83 336.7,79.3 351.3,86 364.7,79.7 392.3,91 
	406,109.3 418.7,105.3 447.3,109.7 "/>
<polyline id="coreInflat10_1_" fill="none" stroke="#C63263" stroke-width="3" stroke-miterlimit="10" points="5.2,83.5 20.5,90.2 
	31.2,83.5 44.5,83.5 73.2,77.5 91.9,76.9 104.6,79.5 117.3,81.5 132.6,90.2 143.3,91.9 157.3,98.9 171.3,103.5 187.3,103.5 
	199.3,108.9 214,104.9 226.6,108.9 240.7,108.9 252,112.3 280.7,112.3 296.7,103.5 322.8,98.9 341.4,98.2 350.1,101.5 362,99.5 
	376.8,104.2 391.5,108.2 410.1,110.9 432.1,110.9 447.5,115.5 447.9,115.6 "/>
</svg>
