<?xml version="1.0" encoding="utf-8"?>
<!-- Generator: Adobe Illustrator 17.1.0, SVG Export Plug-In . SVG Version: 6.00 Build 0)  -->
<!DOCTYPE svg PUBLIC "-//W3C//DTD SVG 1.1//EN" "http://www.w3.org/Graphics/SVG/1.1/DTD/svg11.dtd">
<svg version="1.1" id="Layer_6" xmlns="http://www.w3.org/2000/svg" xmlns:xlink="http://www.w3.org/1999/xlink" x="0px" y="0px"
	 viewBox="0 0 792 612" enable-background="new 0 0 792 612" xml:space="preserve">
<polyline id="headInflat03" fill="none" stroke="#03EDED" stroke-width="3" stroke-miterlimit="10" points="4.7,126 22,125 
	59.7,104.7 78.7,121.3 97,124.7 116.7,109.3 133.3,99.3 152.7,76 169.3,91.3 188,79.3 206.3,62 222,56.7 244.7,44.7 262.7,46 
	280,80.3 298,83.3 317.3,79.7 334,82.7 390.7,89.3 407.3,101.3 426,106 446,95 "/>
<polyline id="coreInflat03" fill="none" stroke="#C63263" stroke-width="3" stroke-miterlimit="10" points="3.9,86 21.4,86 
	40.1,90.7 77.5,85.4 97,92.7 113.8,96.7 133.1,86.7 151.7,52.2 169.3,94 187.4,100.1 206.2,84.7 226.3,85.4 246.4,98 256.5,99.5 
	280.6,112.1 299.3,108.1 317.4,107.6 335.6,109.5 372.4,134.3 390.5,123 428,141 446.6,132.9 "/>
</svg>
