<?xml version="1.0" encoding="utf-8"?>
<!-- Generator: Adobe Illustrator 17.1.0, SVG Export Plug-In . SVG Version: 6.00 Build 0)  -->
<!DOCTYPE svg PUBLIC "-//W3C//DTD SVG 1.1//EN" "http://www.w3.org/Graphics/SVG/1.1/DTD/svg11.dtd">
<svg version="1.1" id="Layer_1" xmlns="http://www.w3.org/2000/svg" xmlns:xlink="http://www.w3.org/1999/xlink" x="0px" y="0px"
	 viewBox="0 0 792 612" enable-background="new 0 0 792 612" xml:space="preserve">
<polyline id="un01" fill="none" stroke="#C63263" stroke-width="3" stroke-miterlimit="10" points="4.8,68.8 26.4,65 48.4,68.4 68.4,67.9 89.8,65 109.2,68.4 130.9,68.4 153.4,65 174.7,71.8 197.6,71.8 213.9,67.9 236.8,69.2 256.6,63 279.5,63 286.5,61.7 296.7,61.1 320.6,54.9 341.3,57.2 362.2,53.9 383.6,53.9 402.5,43.3 424.7,44.2 445.1,30.7 450.9,27.4 "/>
<polyline id="core01" fill="none" stroke="#C63263" stroke-width="3" stroke-miterlimit="10" points="4.7,87.7 26.3,77.4 48.4,61.3 71.1,71.9 89.1,66.3 108,68.5 129.9,68.9 151.5,65.5 171.2,70.4 193.6,71.7 215,68.1 236.6,73.2 276,71.1 299.5,83.2 316.6,83.8 342.5,95.5 382.9,85.4 404.1,86.6 424.4,148.1 446.9,88.2 "/>
<polyline id="headline01" fill="none" stroke="#03EDED" stroke-width="3" stroke-miterlimit="10" points="3.7,55.9 47.3,10.1 67,37.6 89.2,36.1 110.2,21 130.8,22 151.9,34.4 172.9,31.8 197,34.4 213,33.3 233.7,40.9 256.2,29.9 275.7,41.3 297.9,68.2 316.5,55.7 337.4,51.7 360.4,62.2 380.7,76 402.7,75 423.3,126.2 445.8,95.4 "/>
</svg>
